<svg width="137" height="48" viewBox="0 0 137 48" fill="none" xmlns="http://www.w3.org/2000/svg">
<rect x="0.76123" y="0.131836" width="135.918" height="47" rx="5" fill="white" fill-opacity="0.4"/>
<path d="M27.5621 24.1476C27.5736 23.2588 27.8103 22.3874 28.2503 21.6143C28.6903 20.8413 29.3192 20.1918 30.0785 19.7263C29.5961 19.0393 28.9597 18.474 28.2199 18.0751C27.4801 17.6763 26.6572 17.455 25.8166 17.4288C24.0235 17.2411 22.2852 18.4987 21.3714 18.4987C20.44 18.4987 19.0331 17.4474 17.5182 17.4785C16.5382 17.51 15.5832 17.7942 14.7462 18.3033C13.9092 18.8123 13.2186 19.5289 12.7419 20.3832C10.6768 23.9487 12.2172 29.1888 14.1954 32.0709C15.1852 33.4822 16.3419 35.0586 17.8555 35.0027C19.3366 34.9414 19.8898 34.0609 21.6776 34.0609C23.4489 34.0609 23.9679 35.0027 25.5122 34.9672C27.1015 34.9414 28.1029 33.5496 29.0579 32.125C29.7691 31.1194 30.3163 30.008 30.6793 28.832C29.756 28.4425 28.968 27.7907 28.4137 26.9576C27.8593 26.1246 27.5632 25.1473 27.5621 24.1476Z" fill="black"/>
<path d="M24.6449 15.9767C25.5115 14.9393 25.9384 13.606 25.8351 12.2598C24.5112 12.3984 23.2882 13.0294 22.41 14.027C21.9805 14.5143 21.6516 15.0813 21.4421 15.6954C21.2325 16.3096 21.1464 16.9589 21.1887 17.6063C21.8509 17.6131 22.506 17.47 23.1047 17.1877C23.7033 16.9054 24.23 16.4914 24.6449 15.9767Z" fill="black"/>
<path d="M44.7492 13.3618H47.2192V16.8618C46.8325 16.9885 46.4425 17.0818 46.0492 17.1418C45.6559 17.2018 45.2092 17.2318 44.7092 17.2318C43.9692 17.2318 43.3459 17.0852 42.8392 16.7918C42.3325 16.4918 41.9459 16.0685 41.6792 15.5218C41.4192 14.9685 41.2892 14.3152 41.2892 13.5618C41.2892 12.8152 41.4359 12.1685 41.7292 11.6218C42.0225 11.0752 42.4425 10.6518 42.9892 10.3518C43.5425 10.0452 44.2092 9.89184 44.9892 9.89184C45.3892 9.89184 45.7659 9.9285 46.1192 10.0018C46.4792 10.0752 46.8125 10.1785 47.1192 10.3118L46.7792 11.0918C46.5259 10.9785 46.2392 10.8818 45.9192 10.8018C45.6059 10.7218 45.2792 10.6818 44.9392 10.6818C44.3725 10.6818 43.8859 10.7985 43.4792 11.0318C43.0725 11.2652 42.7625 11.5985 42.5492 12.0318C42.3359 12.4585 42.2292 12.9685 42.2292 13.5618C42.2292 14.1285 42.3192 14.6318 42.4992 15.0718C42.6859 15.5052 42.9759 15.8452 43.3692 16.0918C43.7625 16.3318 44.2792 16.4518 44.9192 16.4518C45.1325 16.4518 45.3192 16.4452 45.4792 16.4318C45.6459 16.4118 45.7959 16.3885 45.9292 16.3618C46.0692 16.3352 46.1992 16.3085 46.3192 16.2818V14.1618H44.7492V13.3618ZM52.9146 17.1318H48.9246V9.99184H52.9146V10.7818H49.8246V13.0118H52.7346V13.7918H49.8246V16.3418H52.9146V17.1318ZM56.7412 17.1318H55.8412V10.7818H53.6112V9.99184H58.9612V10.7818H56.7412V17.1318ZM65.1729 17.1318H62.5929V16.6118L63.4329 16.4218V10.7118L62.5929 10.5118V9.99184H65.1729V10.5118L64.3329 10.7118V16.4218L65.1729 16.6118V17.1318ZM68.8115 17.1318H67.9115V10.7818H65.6815V9.99184H71.0315V10.7818H68.8115V17.1318ZM81.4632 13.5518C81.4632 14.1052 81.3932 14.6085 81.2532 15.0618C81.1132 15.5085 80.9032 15.8952 80.6232 16.2218C80.3499 16.5485 80.0065 16.7985 79.5932 16.9718C79.1865 17.1452 78.7132 17.2318 78.1732 17.2318C77.6132 17.2318 77.1265 17.1452 76.7132 16.9718C76.2999 16.7918 75.9565 16.5418 75.6832 16.2218C75.4099 15.8952 75.2065 15.5052 75.0732 15.0518C74.9399 14.5985 74.8732 14.0952 74.8732 13.5418C74.8732 12.8085 74.9932 12.1685 75.2332 11.6218C75.4732 11.0752 75.8365 10.6485 76.3232 10.3418C76.8165 10.0352 77.4365 9.88184 78.1832 9.88184C78.8965 9.88184 79.4965 10.0352 79.9832 10.3418C80.4699 10.6418 80.8365 11.0685 81.0832 11.6218C81.3365 12.1685 81.4632 12.8118 81.4632 13.5518ZM75.8232 13.5518C75.8232 14.1518 75.9065 14.6685 76.0732 15.1018C76.2399 15.5352 76.4965 15.8685 76.8432 16.1018C77.1965 16.3352 77.6399 16.4518 78.1732 16.4518C78.7132 16.4518 79.1532 16.3352 79.4932 16.1018C79.8399 15.8685 80.0965 15.5352 80.2632 15.1018C80.4299 14.6685 80.5132 14.1518 80.5132 13.5518C80.5132 12.6518 80.3265 11.9485 79.9532 11.4418C79.5799 10.9285 78.9899 10.6718 78.1832 10.6718C77.6432 10.6718 77.1965 10.7885 76.8432 11.0218C76.4965 11.2485 76.2399 11.5785 76.0732 12.0118C75.9065 12.4385 75.8232 12.9518 75.8232 13.5518ZM88.7057 17.1318H87.6557L83.8357 11.2018H83.7957C83.8024 11.3218 83.809 11.4552 83.8157 11.6018C83.829 11.7485 83.839 11.9085 83.8457 12.0818C83.8524 12.2485 83.859 12.4218 83.8657 12.6018C83.8724 12.7818 83.8757 12.9618 83.8757 13.1418V17.1318H83.0457V9.99184H84.0857L87.8957 15.9018H87.9357C87.929 15.8218 87.9224 15.7118 87.9157 15.5718C87.909 15.4252 87.9024 15.2652 87.8957 15.0918C87.889 14.9118 87.8824 14.7285 87.8757 14.5418C87.869 14.3552 87.8657 14.1818 87.8657 14.0218V9.99184H88.7057V17.1318Z" fill="black"/>
<path d="M49.5971 33.8126H44.2368L42.9496 37.6804H40.6792L45.7563 23.3704H48.1152L53.1923 37.6804H50.8832L49.5971 33.8126ZM44.792 32.0278H49.0409L46.9463 25.7506H46.8876L44.792 32.0278Z" fill="black"/>
<path d="M64.1572 32.4644C64.1572 35.7066 62.4519 37.7896 59.8785 37.7896C59.2267 37.8243 58.5784 37.6715 58.0078 37.3486C57.4373 37.0258 56.9677 36.546 56.6527 35.9642H56.604V41.1318H54.4995V27.2473H56.5365V28.9826H56.5752C56.9047 28.4036 57.3823 27.9263 57.9572 27.6015C58.532 27.2767 59.1826 27.1166 59.8398 27.1381C62.442 27.1381 64.1572 29.2313 64.1572 32.4644ZM61.9941 32.4644C61.9941 30.3522 60.9214 28.9635 59.2847 28.9635C57.6767 28.9635 56.5952 30.3814 56.5952 32.4644C56.5952 34.5666 57.6767 35.9744 59.2847 35.9744C60.9214 35.9744 61.9941 34.5958 61.9941 32.4644Z" fill="black"/>
<path d="M75.4422 32.4644C75.4422 35.7066 73.7363 37.7896 71.1629 37.7896C70.511 37.8243 69.8627 37.6715 69.2922 37.3486C68.7217 37.0258 68.2521 36.546 67.9371 35.9642H67.8884V41.1318H65.7839V27.2473H67.8209V28.9826H67.8596C68.1891 28.4036 68.6667 27.9263 69.2415 27.6015C69.8164 27.2767 70.467 27.1166 71.1242 27.1381C73.7264 27.1381 75.4422 29.2313 75.4422 32.4644ZM73.2785 32.4644C73.2785 30.3522 72.2058 28.9635 70.5691 28.9635C68.9611 28.9635 67.8796 30.3814 67.8796 32.4644C67.8796 34.5666 68.9611 35.9744 70.5691 35.9744C72.2058 35.9744 73.2785 34.5958 73.2785 32.4644Z" fill="black"/>
<path d="M82.8991 33.6933C83.055 35.1124 84.4098 36.0441 86.261 36.0441C88.0348 36.0441 89.311 35.1123 89.311 33.8328C89.311 32.7221 88.5413 32.057 86.7188 31.6012L84.8963 31.1545C82.3141 30.5198 81.1153 29.2909 81.1153 27.2968C81.1153 24.8277 83.2298 23.1318 86.2312 23.1318C89.2038 23.1318 91.2408 24.8277 91.3094 27.2968H89.1849C89.0578 25.8687 87.8977 25.0067 86.2024 25.0067C84.5071 25.0067 83.347 25.8788 83.347 27.1482C83.347 28.1599 84.0879 28.7552 85.9005 29.2109L87.4498 29.5981C90.3351 30.2924 91.5327 31.4718 91.5327 33.5649C91.5327 36.2421 89.4382 37.9189 86.105 37.9189C82.9864 37.9189 80.8808 36.2815 80.7448 33.6932L82.8991 33.6933Z" fill="black"/>
<path d="M96.0767 24.7783V27.2473H98.0264V28.9432H96.0767V34.6949C96.0767 35.5884 96.4671 36.0048 97.3242 36.0048C97.5556 36.0007 97.7867 35.9841 98.0164 35.9552V37.641C97.6311 37.7142 97.2395 37.7474 96.8475 37.74C94.7718 37.74 93.9623 36.9466 93.9623 34.9233V28.9432H92.4715V27.2473H93.9622V24.7783H96.0767Z" fill="black"/>
<path d="M99.1545 32.4644C99.1545 29.1818 101.054 27.119 104.017 27.119C106.99 27.119 108.881 29.1817 108.881 32.4644C108.881 35.7561 107 37.8098 104.017 37.8098C101.036 37.8098 99.1545 35.7561 99.1545 32.4644ZM106.736 32.4644C106.736 30.2126 105.722 28.8836 104.017 28.8836C102.312 28.8836 101.298 30.2227 101.298 32.4644C101.298 34.7252 102.312 36.0442 104.017 36.0442C105.722 36.0442 106.736 34.7252 106.736 32.4644Z" fill="black"/>
<path d="M110.616 27.2473H112.623V29.0231H112.672C112.807 28.4685 113.127 27.9783 113.576 27.6351C114.025 27.2918 114.577 27.1163 115.138 27.1381C115.38 27.1373 115.622 27.1641 115.859 27.218V29.2211C115.553 29.1259 115.233 29.0822 114.913 29.0917C114.608 29.0791 114.303 29.134 114.02 29.2525C113.737 29.3711 113.483 29.5506 113.274 29.7786C113.066 30.0066 112.908 30.2779 112.813 30.5736C112.717 30.8694 112.686 31.1827 112.72 31.4921V37.6804H110.616L110.616 27.2473Z" fill="black"/>
<path d="M125.562 34.6161C125.279 36.51 123.466 37.8098 121.147 37.8098C118.165 37.8098 116.313 35.7763 116.313 32.5139C116.313 29.2414 118.175 27.119 121.059 27.119C123.895 27.119 125.679 29.1019 125.679 32.2652V32.9989H118.438V33.1284C118.404 33.5123 118.452 33.8991 118.576 34.2631C118.701 34.6271 118.901 34.9598 119.162 35.2393C119.422 35.5188 119.739 35.7387 120.089 35.8842C120.44 36.0298 120.817 36.0977 121.196 36.0835C121.693 36.1309 122.192 36.0137 122.619 35.7493C123.046 35.4849 123.377 35.0875 123.564 34.6161L125.562 34.6161ZM118.448 31.5022H123.574C123.592 31.157 123.541 30.8115 123.423 30.4874C123.304 30.1634 123.121 29.8678 122.885 29.6191C122.649 29.3705 122.365 29.1742 122.05 29.0426C121.736 28.911 121.399 28.8469 121.059 28.8543C120.716 28.8522 120.376 28.9192 120.059 29.0514C119.742 29.1837 119.454 29.3785 119.211 29.6247C118.968 29.8708 118.776 30.1635 118.645 30.4858C118.514 30.808 118.447 31.1535 118.448 31.5022Z" fill="black"/>
</svg>
