<svg width="40" height="41" viewBox="0 0 40 41" fill="none" xmlns="http://www.w3.org/2000/svg">
<rect y="0.115723" width="40" height="40" rx="8" fill="#4748B1" fill-opacity="0.1"/>
<path d="M32 29.1157H9V24.5657L16.05 18.4032L23.4 23.9157C23.584 24.054 23.8101 24.1245 24.0401 24.1154C24.2701 24.1063 24.49 24.0181 24.6625 23.8657L32.6625 16.8657C32.761 16.7787 32.8414 16.6732 32.8991 16.5551C32.9568 16.437 32.9907 16.3088 32.9988 16.1776C33.0069 16.0464 32.9891 15.915 32.9464 15.7907C32.9038 15.6664 32.837 15.5517 32.75 15.4532C32.663 15.3547 32.5575 15.2743 32.4394 15.2166C32.3213 15.1589 32.193 15.1251 32.0619 15.1169C31.9307 15.1088 31.7992 15.1266 31.6749 15.1693C31.5507 15.212 31.436 15.2787 31.3375 15.3657L23.95 21.8282L16.6 16.3157C16.416 16.1775 16.1899 16.107 15.9599 16.1161C15.7299 16.1252 15.51 16.2134 15.3375 16.3657L9 21.9157V10.1157C9 9.85051 8.89464 9.59615 8.70711 9.40862C8.51957 9.22108 8.26522 9.11572 8 9.11572C7.73478 9.11572 7.48043 9.22108 7.29289 9.40862C7.10536 9.59615 7 9.85051 7 10.1157V30.1157C7 30.3809 7.10536 30.6353 7.29289 30.8228C7.48043 31.0104 7.73478 31.1157 8 31.1157H32C32.2652 31.1157 32.5196 31.0104 32.7071 30.8228C32.8946 30.6353 33 30.3809 33 30.1157C33 29.8505 32.8946 29.5962 32.7071 29.4086C32.5196 29.2211 32.2652 29.1157 32 29.1157Z" fill="#4748B1"/>
</svg>
