<svg width="48" height="48" viewBox="0 0 48 48" fill="none" xmlns="http://www.w3.org/2000/svg">
<rect width="48" height="48" rx="10" fill="#5152B0" fill-opacity="0.09"/>
<path opacity="0.2" d="M24 10.5C27.5804 10.5 31.0142 11.9223 33.5459 14.4541C36.0777 16.9858 37.5 20.4196 37.5 24C37.5 27.5804 36.0777 31.0142 33.5459 33.5459C31.0142 36.0777 27.5804 37.5 24 37.5" fill="#5152B0"/>
<path d="M24 37.5C31.4558 37.5 37.5 31.4558 37.5 24C37.5 16.5442 31.4558 10.5 24 10.5C16.5442 10.5 10.5 16.5442 10.5 24C10.5 31.4558 16.5442 37.5 24 37.5Z" stroke="#5152B0" stroke-width="2" stroke-linecap="round" stroke-linejoin="round"/>
<path d="M24 10.5V37.5" stroke="#5152B0" stroke-width="2" stroke-linecap="round" stroke-linejoin="round"/>
</svg>
