<svg width="48" height="48" viewBox="0 0 48 48" fill="none" xmlns="http://www.w3.org/2000/svg">
<rect width="48" height="48" rx="10" fill="#F65A3B" fill-opacity="0.09"/>
<path opacity="0.2" d="M10.6547 16.4907C10.5528 16.6657 10.4994 16.8648 10.5 17.0673V30.9329C10.5011 31.1332 10.5549 31.3297 10.6562 31.5025C10.7574 31.6753 10.9024 31.8184 11.0766 31.9173L23.4516 38.8782C23.6184 38.9736 23.8079 39.0221 24 39.0188L24.1266 24.0001L10.6547 16.4907Z" fill="#F65A3B"/>
<path d="M37.5 30.9327V17.0671C37.4989 16.8668 37.4451 16.6704 37.3438 16.4976C37.2426 16.3247 37.0976 16.1816 36.9234 16.0827L24.5484 9.12181C24.3817 9.02554 24.1925 8.97485 24 8.97485C23.8075 8.97485 23.6183 9.02554 23.4516 9.12181L11.0766 16.0827C10.9024 16.1816 10.7574 16.3247 10.6562 16.4976C10.5549 16.6704 10.5011 16.8668 10.5 17.0671V30.9327C10.5011 31.133 10.5549 31.3295 10.6562 31.5023C10.7574 31.6751 10.9024 31.8182 11.0766 31.9171L23.4516 38.8781C23.6183 38.9743 23.8075 39.025 24 39.025C24.1925 39.025 24.3817 38.9743 24.5484 38.8781L36.9234 31.9171C37.0976 31.8182 37.2426 31.6751 37.3438 31.5023C37.4451 31.3295 37.4989 31.133 37.5 30.9327V30.9327Z" stroke="#F65A3B" stroke-width="2" stroke-linecap="round" stroke-linejoin="round"/>
<path d="M37.3454 16.4907L24.1267 24.0001L10.6548 16.4907" stroke="#F65A3B" stroke-width="2" stroke-linecap="round" stroke-linejoin="round"/>
<path d="M24.1266 24L24 39.0188" stroke="#F65A3B" stroke-width="2" stroke-linecap="round" stroke-linejoin="round"/>
</svg>
