<svg width="1078" height="894" viewBox="0 0 1078 894" fill="none" xmlns="http://www.w3.org/2000/svg">
<g opacity="0.9" filter="url(#filter0_dd_1772_1450)">
<path d="M924.968 101.067C753.117 -28.9969 522.418 411.653 374.459 139.907C226.5 -131.838 54.9303 86.1722 112.959 245.319C170.987 404.465 29.5339 288.578 15.64 379.492C1.74618 470.407 217.569 540.3 321.444 623.15C425.32 705.999 188.093 730.3 291.969 813.15C395.844 895.999 553.323 880.91 543.5 745.5C536.615 650.596 447.332 652.392 446.039 549.15C444.746 445.907 615.866 392.742 704.334 419.149C784.42 443.055 803 482 870.487 491.585C937.974 501.17 1127.91 515.776 1028.92 400.378C929.926 284.981 981.867 292.938 1045.66 245.319C1109.46 197.7 983.537 145.394 924.968 101.067Z" stroke="url(#paint0_radial_1772_1450)" stroke-width="21" shape-rendering="crispEdges"/>
</g>
<defs>
<filter id="filter0_dd_1772_1450" x="0.494629" y="0.497559" width="1077.25" height="893.137" filterUnits="userSpaceOnUse" color-interpolation-filters="sRGB">
<feFlood flood-opacity="0" result="BackgroundImageFix"/>
<feColorMatrix in="SourceAlpha" type="matrix" values="0 0 0 0 0 0 0 0 0 0 0 0 0 0 0 0 0 0 127 0" result="hardAlpha"/>
<feOffset dy="19"/>
<feComposite in2="hardAlpha" operator="out"/>
<feColorMatrix type="matrix" values="0 0 0 0 0 0 0 0 0 0 0 0 0 0 0 0 0 0 0.18 0"/>
<feBlend mode="normal" in2="BackgroundImageFix" result="effect1_dropShadow_1772_1450"/>
<feColorMatrix in="SourceAlpha" type="matrix" values="0 0 0 0 0 0 0 0 0 0 0 0 0 0 0 0 0 0 127 0" result="hardAlpha"/>
<feOffset dy="8"/>
<feGaussianBlur stdDeviation="2"/>
<feComposite in2="hardAlpha" operator="out"/>
<feColorMatrix type="matrix" values="0 0 0 0 0 0 0 0 0 0 0 0 0 0 0 0 0 0 0.05 0"/>
<feBlend mode="normal" in2="effect1_dropShadow_1772_1450" result="effect2_dropShadow_1772_1450"/>
<feBlend mode="normal" in="SourceGraphic" in2="effect2_dropShadow_1772_1450" result="shape"/>
</filter>
<radialGradient id="paint0_radial_1772_1450" cx="0" cy="0" r="1" gradientUnits="userSpaceOnUse" gradientTransform="translate(11.0441 310.878) rotate(5.1352) scale(1080.92 21737.9)">
<stop stop-color="#E72914"/>
<stop offset="0.443824" stop-color="#27029E"/>
<stop offset="0.704979" stop-color="#CC1743"/>
<stop offset="1" stop-color="#5E1E94"/>
</radialGradient>
</defs>
</svg>
