<svg width="40" height="41" viewBox="0 0 40 41" fill="none" xmlns="http://www.w3.org/2000/svg">
<rect y="0.115723" width="40" height="40" rx="8" fill="#4748B1" fill-opacity="0.1"/>
<path d="M28 31.1157V9.11572C28 8.01115 27.1046 7.11572 26 7.11572L14 7.11572C12.8954 7.11572 12 8.01115 12 9.11572L12 31.1157C12 32.2203 12.8954 33.1157 14 33.1157H26C27.1046 33.1157 28 32.2203 28 31.1157Z" stroke="#4748B1" stroke-width="2" stroke-linecap="round" stroke-linejoin="round"/>
<path d="M20 13.1157C20.8284 13.1157 21.5 12.4441 21.5 11.6157C21.5 10.7873 20.8284 10.1157 20 10.1157C19.1716 10.1157 18.5 10.7873 18.5 11.6157C18.5 12.4441 19.1716 13.1157 20 13.1157Z" fill="#4748B1"/>
</svg>
