<svg width="48" height="48" viewBox="0 0 48 48" fill="none" xmlns="http://www.w3.org/2000/svg">
<rect width="48" height="48" rx="10" fill="#5152B0" fill-opacity="0.09"/>
<path opacity="0.2" d="M23.1971 9.61148L9.60409 23.2045C9.16475 23.6438 9.16475 24.3562 9.60409 24.7955L23.2011 38.3925C23.6404 38.8318 24.3527 38.8318 24.7921 38.3925L38.3851 24.7995C38.8244 24.3601 38.8244 23.6478 38.3851 23.2085L24.7881 9.61148C24.3488 9.17214 23.6365 9.17214 23.1971 9.61148Z" fill="#5152B0"/>
<path d="M23.1971 9.61148L9.60409 23.2045C9.16475 23.6438 9.16475 24.3562 9.60409 24.7955L23.2011 38.3925C23.6404 38.8318 24.3527 38.8318 24.7921 38.3925L38.3851 24.7995C38.8244 24.3601 38.8244 23.6478 38.3851 23.2085L24.7881 9.61148C24.3488 9.17214 23.6365 9.17214 23.1971 9.61148Z" stroke="#5152B0" stroke-width="2" stroke-linecap="round" stroke-linejoin="round"/>
</svg>
