<svg width="37" height="36" viewBox="0 0 37 36" fill="none" xmlns="http://www.w3.org/2000/svg">
<path d="M18.5 3.375C18.5 3.375 7.25 10.125 7.25 20.25C7.24908 23.1819 8.39418 25.998 10.4409 28.0972C12.4876 30.1964 15.2737 31.4125 18.2047 31.4859C16.7659 31.4137 15.4099 30.7908 14.4178 29.7463C13.4256 28.7018 12.8732 27.3156 12.875 25.875C12.875 20.25 18.5 16.875 18.5 16.875C18.5 16.875 24.125 20.25 24.125 25.875C24.1268 27.3156 23.5744 28.7018 22.5822 29.7463C21.5901 30.7908 20.2341 31.4137 18.7953 31.4859C21.7263 31.4125 24.5124 30.1964 26.5591 28.0972C28.6058 25.998 29.7509 23.1819 29.75 20.25C29.75 10.125 18.5 3.375 18.5 3.375Z" fill="#EA1A4C"/>
<path d="M29.75 20.25C29.75 10.125 18.5 3.375 18.5 3.375C18.5 3.375 7.25 10.125 7.25 20.25C7.25 23.2337 8.43526 26.0952 10.545 28.205C12.6548 30.3147 15.5163 31.5 18.5 31.5C21.4837 31.5 24.3452 30.3147 26.455 28.205C28.5647 26.0952 29.75 23.2337 29.75 20.25Z" stroke="#EA1A4C" stroke-width="2" stroke-linecap="round" stroke-linejoin="round"/>
<path opacity="0.4" d="M12.875 25.875C12.875 27.3668 13.4676 28.7976 14.5225 29.8525C15.5774 30.9074 17.0082 31.5 18.5 31.5C19.9918 31.5 21.4226 30.9074 22.4775 29.8525C23.5324 28.7976 24.125 27.3668 24.125 25.875C24.125 20.25 18.5 16.875 18.5 16.875C18.5 16.875 12.875 20.25 12.875 25.875Z" fill="#EA1A4C" stroke="#EA1A4C" stroke-width="2" stroke-linecap="round" stroke-linejoin="round"/>
</svg>
