<svg width="24" height="25" viewBox="0 0 24 25" fill="none" xmlns="http://www.w3.org/2000/svg">
<g clip-path="url(#clip0_1772_1961)">
<path d="M12 0.631836C5.37264 0.631836 0 6.00448 0 12.6318C0 18.2594 3.87456 22.9816 9.10128 24.2786V16.299H6.62688V12.6318H9.10128V11.0517C9.10128 6.96736 10.9498 5.07424 14.9597 5.07424C15.72 5.07424 17.0318 5.22352 17.5685 5.37232V8.69632C17.2853 8.66656 16.7933 8.65168 16.1822 8.65168C14.2147 8.65168 13.4544 9.39712 13.4544 11.3349V12.6318H17.3741L16.7006 16.299H13.4544V24.544C19.3963 23.8264 24.0005 18.7672 24.0005 12.6318C24 6.00448 18.6274 0.631836 12 0.631836Z" fill="#676767"/>
</g>
<defs>
<clipPath id="clip0_1772_1961">
<rect width="24" height="24" fill="white" transform="translate(0 0.631836)"/>
</clipPath>
</defs>
</svg>
