<svg width="140" height="48" viewBox="0 0 140 48" fill="none" xmlns="http://www.w3.org/2000/svg">
<rect y="0.131836" width="139.761" height="47" rx="5" fill="white" fill-opacity="0.4"/>
<path d="M11.4264 12.62C11.1301 12.9643 10.979 13.4069 11.0039 13.8571V33.4046C10.9733 33.8556 11.1251 34.3002 11.4264 34.6418L11.4893 34.7125L22.6277 23.7634V23.4983L11.4893 12.5581L11.4264 12.62Z" fill="url(#paint0_linear_1772_1693)"/>
<path d="M26.3138 27.4131L22.6279 23.7634V23.4983L26.3138 19.8486L26.3947 19.9017L30.8087 22.3583C32.0673 23.0565 32.0673 24.2053 30.8087 24.9122L26.4127 27.3689L26.3138 27.4131Z" fill="url(#paint1_linear_1772_1693)"/>
<path d="M26.4213 27.3601L22.6276 23.6309L11.4263 34.6418C11.6803 34.864 12.0055 34.9919 12.3453 35.0032C12.6852 35.0145 13.0184 34.9085 13.2872 34.7036L26.4213 27.3601Z" fill="url(#paint2_linear_1772_1693)"/>
<path d="M26.4213 19.9017L13.2872 12.567C13.0202 12.3592 12.6873 12.2507 12.3469 12.2604C12.0065 12.2701 11.6806 12.3974 11.4263 12.62L22.6276 23.6309L26.4213 19.9017Z" fill="url(#paint3_linear_1772_1693)"/>
<path opacity="0.2" d="M26.3134 27.2808L13.2872 34.5713C13.0282 34.7634 12.7126 34.8673 12.3882 34.8673C12.0638 34.8673 11.7482 34.7634 11.4892 34.5713L11.4263 34.6331L11.4892 34.7038C11.7482 34.896 12.0638 34.9999 12.3882 34.9999C12.7126 34.9999 13.0282 34.896 13.2872 34.7038L26.4213 27.3603L26.3134 27.2808Z" fill="black"/>
<path opacity="0.12" d="M11.4261 34.518C11.1373 34.1675 10.9958 33.7217 11.0305 33.272V33.4045C11 33.8556 11.1518 34.3002 11.4531 34.6417L11.516 34.5798L11.4261 34.518Z" fill="black"/>
<path opacity="0.12" d="M30.8084 24.7797L26.3135 27.2805L26.3944 27.3601L30.8084 24.9034C31.0689 24.7951 31.295 24.6197 31.4627 24.3958C31.6304 24.1718 31.7335 23.9076 31.7613 23.6309C31.7051 23.8823 31.5896 24.1173 31.4241 24.3169C31.2586 24.5164 31.0477 24.6749 30.8084 24.7797Z" fill="black"/>
<path opacity="0.25" d="M13.2873 12.6906L30.8085 22.482C31.0478 22.5867 31.2587 22.7452 31.4242 22.9448C31.5897 23.1443 31.7052 23.3793 31.7614 23.6308C31.7337 23.354 31.6305 23.0898 31.4628 22.8659C31.2951 22.6419 31.0691 22.4666 30.8085 22.3583L13.2873 12.5669C12.0377 11.8599 11.0039 12.4431 11.0039 13.8571V13.9896C11.0309 12.5757 12.0377 11.9925 13.2873 12.6906Z" fill="black"/>
<path d="M45.8312 13.3618H48.3012V16.8618C47.9146 16.9885 47.5246 17.0818 47.1312 17.1418C46.7379 17.2018 46.2912 17.2318 45.7912 17.2318C45.0512 17.2318 44.4279 17.0852 43.9212 16.7918C43.4146 16.4918 43.0279 16.0685 42.7612 15.5218C42.5012 14.9685 42.3712 14.3152 42.3712 13.5618C42.3712 12.8152 42.5179 12.1685 42.8112 11.6218C43.1046 11.0752 43.5246 10.6518 44.0712 10.3518C44.6246 10.0452 45.2912 9.89184 46.0712 9.89184C46.4712 9.89184 46.8479 9.9285 47.2012 10.0018C47.5612 10.0752 47.8946 10.1785 48.2012 10.3118L47.8612 11.0918C47.6079 10.9785 47.3212 10.8818 47.0012 10.8018C46.6879 10.7218 46.3612 10.6818 46.0212 10.6818C45.4546 10.6818 44.9679 10.7985 44.5612 11.0318C44.1546 11.2652 43.8446 11.5985 43.6312 12.0318C43.4179 12.4585 43.3112 12.9685 43.3112 13.5618C43.3112 14.1285 43.4012 14.6318 43.5812 15.0718C43.7679 15.5052 44.0579 15.8452 44.4512 16.0918C44.8446 16.3318 45.3612 16.4518 46.0012 16.4518C46.2146 16.4518 46.4012 16.4452 46.5612 16.4318C46.7279 16.4118 46.8779 16.3885 47.0112 16.3618C47.1512 16.3352 47.2812 16.3085 47.4012 16.2818V14.1618H45.8312V13.3618ZM53.9966 17.1318H50.0066V9.99184H53.9966V10.7818H50.9066V13.0118H53.8166V13.7918H50.9066V16.3418H53.9966V17.1318ZM57.8233 17.1318H56.9233V10.7818H54.6933V9.99184H60.0433V10.7818H57.8233V17.1318ZM66.2549 17.1318H63.6749V16.6118L64.5149 16.4218V10.7118L63.6749 10.5118V9.99184H66.2549V10.5118L65.4149 10.7118V16.4218L66.2549 16.6118V17.1318ZM69.8936 17.1318H68.9936V10.7818H66.7636V9.99184H72.1136V10.7818H69.8936V17.1318ZM82.5452 13.5518C82.5452 14.1052 82.4752 14.6085 82.3352 15.0618C82.1952 15.5085 81.9852 15.8952 81.7052 16.2218C81.4319 16.5485 81.0885 16.7985 80.6752 16.9718C80.2685 17.1452 79.7952 17.2318 79.2552 17.2318C78.6952 17.2318 78.2085 17.1452 77.7952 16.9718C77.3819 16.7918 77.0385 16.5418 76.7652 16.2218C76.4919 15.8952 76.2885 15.5052 76.1552 15.0518C76.0219 14.5985 75.9552 14.0952 75.9552 13.5418C75.9552 12.8085 76.0752 12.1685 76.3152 11.6218C76.5552 11.0752 76.9185 10.6485 77.4052 10.3418C77.8985 10.0352 78.5185 9.88184 79.2652 9.88184C79.9785 9.88184 80.5785 10.0352 81.0652 10.3418C81.5519 10.6418 81.9185 11.0685 82.1652 11.6218C82.4185 12.1685 82.5452 12.8118 82.5452 13.5518ZM76.9052 13.5518C76.9052 14.1518 76.9885 14.6685 77.1552 15.1018C77.3219 15.5352 77.5785 15.8685 77.9252 16.1018C78.2785 16.3352 78.7219 16.4518 79.2552 16.4518C79.7952 16.4518 80.2352 16.3352 80.5752 16.1018C80.9219 15.8685 81.1785 15.5352 81.3452 15.1018C81.5119 14.6685 81.5952 14.1518 81.5952 13.5518C81.5952 12.6518 81.4085 11.9485 81.0352 11.4418C80.6619 10.9285 80.0719 10.6718 79.2652 10.6718C78.7252 10.6718 78.2785 10.7885 77.9252 11.0218C77.5785 11.2485 77.3219 11.5785 77.1552 12.0118C76.9885 12.4385 76.9052 12.9518 76.9052 13.5518ZM89.7877 17.1318H88.7377L84.9177 11.2018H84.8777C84.8844 11.3218 84.891 11.4552 84.8977 11.6018C84.911 11.7485 84.921 11.9085 84.9277 12.0818C84.9344 12.2485 84.941 12.4218 84.9477 12.6018C84.9544 12.7818 84.9577 12.9618 84.9577 13.1418V17.1318H84.1277V9.99184H85.1677L88.9777 15.9018H89.0177C89.011 15.8218 89.0044 15.7118 88.9977 15.5718C88.991 15.4252 88.9844 15.2652 88.9777 15.0918C88.971 14.9118 88.9644 14.7285 88.9577 14.5418C88.951 14.3552 88.9477 14.1818 88.9477 14.0218V9.99184H89.7877V17.1318Z" fill="black"/>
<path d="M69.6873 28.1267C68.8243 28.1288 67.9814 28.3961 67.2651 28.8948C66.5487 29.3935 65.9911 30.1011 65.6628 30.9283C65.3344 31.7555 65.2501 32.665 65.4204 33.5419C65.5907 34.4187 66.0081 35.2235 66.6197 35.8545C67.2313 36.4855 68.0097 36.9143 68.8564 37.0868C69.7031 37.2592 70.5801 37.1675 71.3766 36.8233C72.173 36.4791 72.8531 35.8978 73.3308 35.1529C73.8086 34.408 74.0625 33.533 74.0605 32.6386C74.0688 32.0419 73.9612 31.4495 73.7442 30.8968C73.5271 30.3441 73.2049 29.8423 72.7969 29.4214C72.3888 29.0004 71.9033 28.6688 71.369 28.4464C70.8348 28.224 70.2629 28.1153 69.6873 28.1267ZM69.6873 35.3775C69.1584 35.4159 68.6306 35.2884 68.1725 35.0117C67.7144 34.735 67.3472 34.3218 67.1187 33.8259C66.8901 33.33 66.8108 32.7743 66.8909 32.2311C66.9711 31.6878 67.2071 31.1821 67.5682 30.7797C67.9293 30.3773 68.3989 30.0969 68.9158 29.9747C69.4328 29.8526 69.9732 29.8945 70.4668 30.095C70.9605 30.2955 71.3845 30.6453 71.6839 31.0989C71.9832 31.5525 72.144 32.089 72.1453 32.6386C72.1618 32.9868 72.1108 33.3349 71.9955 33.6624C71.8801 33.9899 71.7026 34.2901 71.4735 34.5454C71.2445 34.8007 70.9684 35.0058 70.6616 35.1487C70.3548 35.2916 70.0235 35.3694 69.6873 35.3775ZM60.142 28.1267C59.2791 28.1288 58.4362 28.3961 57.7198 28.8948C57.0035 29.3935 56.4459 30.1011 56.1175 30.9283C55.7892 31.7555 55.7048 32.665 55.8752 33.5419C56.0455 34.4187 56.4628 35.2235 57.0744 35.8545C57.686 36.4855 58.4644 36.9143 59.3111 37.0868C60.1579 37.2592 61.0349 37.1675 61.8314 36.8233C62.6278 36.4791 63.3079 35.8978 63.7856 35.1529C64.2633 34.408 64.5172 33.533 64.5152 32.6386C64.5236 32.0419 64.416 31.4495 64.1989 30.8968C63.9818 30.3441 63.6597 29.8423 63.2516 29.4214C62.8436 29.0004 62.358 28.6688 61.8238 28.4464C61.2896 28.224 60.7176 28.1153 60.142 28.1267ZM60.142 35.3775C59.6131 35.4159 59.0853 35.2884 58.6272 35.0117C58.1692 34.735 57.802 34.3218 57.5734 33.8259C57.3449 33.33 57.2655 32.7743 57.3457 32.2311C57.4259 31.6878 57.6619 31.1821 58.023 30.7797C58.3841 30.3773 58.8536 30.0969 59.3706 29.9747C59.8875 29.8526 60.4279 29.8945 60.9216 30.095C61.4152 30.2955 61.8393 30.6453 62.1386 31.0989C62.438 31.5525 62.5987 32.089 62.6 32.6386C62.6165 32.9868 62.5656 33.3349 62.4502 33.6624C62.3348 33.9899 62.1574 34.2901 61.9283 34.5454C61.6992 34.8007 61.4231 35.0058 61.1164 35.1487C60.8096 35.2916 60.4783 35.3694 60.142 35.3775ZM48.7942 29.5174V31.4283H53.2186C53.1493 32.3284 52.7883 33.1776 52.1945 33.8382C51.7507 34.3069 51.2169 34.6738 50.6276 34.9152C50.0384 35.1566 49.4068 35.2671 48.7738 35.2395C47.47 35.2395 46.2195 34.7026 45.2976 33.747C44.3757 32.7914 43.8578 31.4953 43.8578 30.1438C43.8578 28.7923 44.3757 27.4962 45.2976 26.5406C46.2195 25.5849 47.47 25.048 48.7738 25.048C50.0237 25.0288 51.2306 25.5208 52.133 26.4175L53.4337 25.0693C52.8233 24.4435 52.0985 23.9502 51.3019 23.6184C50.5052 23.2867 49.6527 23.123 48.7942 23.1371C47.8838 23.1004 46.9755 23.2546 46.1238 23.5904C45.2722 23.9263 44.4948 24.4368 43.838 25.0916C43.1813 25.7463 42.6589 26.5317 42.302 27.4008C41.9452 28.2698 41.7612 29.2046 41.7612 30.1491C41.7612 31.0936 41.9452 32.0283 42.302 32.8974C42.6589 33.7664 43.1813 34.5519 43.838 35.2066C44.4948 35.8613 45.2722 36.3719 46.1238 36.7078C46.9755 37.0436 47.8838 37.1978 48.7942 37.161C49.6703 37.1973 50.5439 37.0411 51.3576 36.7026C52.1713 36.3641 52.9068 35.851 53.5157 35.197C54.5911 33.9724 55.1642 32.3617 55.1134 30.7064C55.117 30.308 55.0862 29.9101 55.0212 29.5174H48.7942ZM95.1993 31.0037C94.9322 30.1891 94.4327 29.4779 93.767 28.9642C93.1012 28.4504 92.3007 28.1584 91.4713 28.1267C90.9111 28.1256 90.3566 28.2436 89.8421 28.4734C89.3276 28.7032 88.864 29.0399 88.4801 29.4628C88.0961 29.8857 87.7999 30.3857 87.6098 30.9319C87.4196 31.4781 87.3396 32.059 87.3746 32.6386C87.3659 33.6077 87.6598 34.5537 88.2125 35.3353C88.7652 36.117 89.5471 36.6923 90.4412 36.9754C91.3354 37.2585 92.294 37.2341 93.1737 36.9059C94.0534 36.5778 94.8071 35.9634 95.3222 35.1546L93.8371 34.093C93.6157 34.4754 93.3017 34.7913 92.9263 35.0092C92.5508 35.227 92.1269 35.3394 91.6966 35.3351C91.2527 35.3541 90.8136 35.2334 90.4371 34.989C90.0606 34.7446 89.7642 34.3878 89.5868 33.9656L95.4143 31.4708L95.1993 31.0037ZM89.2591 32.5112C89.2383 32.1814 89.2813 31.8507 89.3853 31.5383C89.4894 31.226 89.6526 30.9383 89.8653 30.6921C90.078 30.446 90.3359 30.2462 90.624 30.1047C90.9121 29.9631 91.2245 29.8826 91.543 29.8678C91.873 29.8469 92.2016 29.9274 92.4876 30.0993C92.7736 30.2711 93.0044 30.5266 93.1509 30.8338L89.2591 32.5112ZM84.5274 36.885H86.4426V23.6149H84.5274V36.885ZM81.3935 29.1352H81.3218C81.0357 28.7975 80.6826 28.5278 80.2866 28.3446C79.8907 28.1613 79.4613 28.0689 79.0277 28.0736C77.9084 28.1299 76.853 28.6304 76.0801 29.4713C75.3072 30.3123 74.876 31.4293 74.876 32.5908C74.876 33.7523 75.3072 34.8693 76.0801 35.7102C76.853 36.5512 77.9084 37.0517 79.0277 37.1079C79.4619 37.117 79.8926 37.0265 80.2892 36.843C80.6858 36.6595 81.0384 36.3874 81.3218 36.0463H81.3935V36.6939C81.3935 38.4243 80.5025 39.3479 79.0686 39.3479C78.5897 39.337 78.1246 39.1788 77.7325 38.8934C77.3405 38.608 77.0391 38.2082 76.8667 37.7449L75.2075 38.4562C75.5143 39.2548 76.0476 39.9381 76.737 40.4158C77.4264 40.8934 78.2395 41.143 79.0686 41.1315C81.3116 41.1315 83.1653 39.762 83.1653 36.4285V28.3921H81.3935V29.1352ZM79.1915 35.3775C78.5205 35.3342 77.8906 35.0273 77.4303 34.5194C76.9699 34.0115 76.7136 33.3408 76.7136 32.6439C76.7136 31.947 76.9699 31.2763 77.4303 30.7684C77.8906 30.2605 78.5205 29.9536 79.1915 29.9102C79.5195 29.9249 79.8413 30.0078 80.1377 30.154C80.4342 30.3002 80.6992 30.5067 80.917 30.7613C81.1349 31.0158 81.3011 31.3132 81.4059 31.6357C81.5106 31.9582 81.5517 32.2993 81.5266 32.6386C81.5546 32.979 81.5156 33.3218 81.4121 33.6462C81.3086 33.9706 81.1427 34.2699 80.9244 34.5259C80.7061 34.7819 80.44 34.9894 80.1421 35.1358C79.8443 35.2822 79.5209 35.3644 79.1915 35.3775ZM104.171 23.6149H99.5827V36.885H101.498V31.853H104.171C104.717 31.8936 105.265 31.8173 105.781 31.6287C106.297 31.4401 106.77 31.1433 107.171 30.7569C107.571 30.3704 107.891 29.9025 108.109 29.3824C108.328 28.8623 108.44 28.3012 108.44 27.7339C108.44 27.1667 108.328 26.6055 108.109 26.0854C107.891 25.5653 107.571 25.0975 107.171 24.711C106.77 24.3245 106.297 24.0277 105.781 23.8392C105.265 23.6506 104.717 23.5742 104.171 23.6149ZM104.171 29.9845H101.498V25.4621H104.212C104.5 25.4621 104.785 25.5208 105.051 25.635C105.317 25.7492 105.558 25.9165 105.762 26.1275C105.965 26.3384 106.127 26.5889 106.237 26.8645C106.347 27.1402 106.404 27.4356 106.404 27.7339C106.404 28.0323 106.347 28.3277 106.237 28.6033C106.127 28.879 105.965 29.1294 105.762 29.3404C105.558 29.5513 105.317 29.7187 105.051 29.8328C104.785 29.947 104.5 30.0058 104.212 30.0058L104.171 29.9845ZM115.99 28.0843C115.292 28.0397 114.598 28.208 113.992 28.5684C113.385 28.9287 112.894 29.4654 112.579 30.1119L114.269 30.8444C114.44 30.5253 114.696 30.2643 115.007 30.0929C115.318 29.9214 115.67 29.8469 116.021 29.8784C116.264 29.8489 116.51 29.87 116.745 29.9403C116.98 30.0106 117.2 30.1287 117.39 30.2878C117.581 30.447 117.739 30.6438 117.856 30.867C117.972 31.0901 118.045 31.3351 118.069 31.5876V31.715C117.453 31.3794 116.768 31.2045 116.072 31.2054C114.249 31.2054 112.385 32.267 112.385 34.1991C112.403 34.6098 112.5 35.0125 112.671 35.3834C112.843 35.7543 113.084 36.0857 113.381 36.358C113.678 36.6304 114.025 36.838 114.401 36.9687C114.777 37.0993 115.175 37.1503 115.57 37.1186C116.051 37.1461 116.53 37.0407 116.958 36.8131C117.386 36.5855 117.748 36.2439 118.007 35.8234H118.069V36.885H119.912V31.7787C119.912 29.4537 118.212 28.1055 116.031 28.1055L115.99 28.0843ZM115.754 35.3563C115.13 35.3563 114.259 35.0272 114.259 34.231C114.259 33.1694 115.345 32.8084 116.307 32.8084C116.916 32.7929 117.517 32.9468 118.048 33.2543C117.984 33.8308 117.72 34.3637 117.306 34.7541C116.892 35.1444 116.355 35.366 115.795 35.3775L115.754 35.3563ZM126.631 28.3921L124.439 34.146H124.378L122.104 28.3921H120.056L123.466 36.4391L121.52 40.9085H123.517L128.761 28.3921H126.631ZM109.425 36.885H111.33V23.6149H109.425V36.885Z" fill="black"/>
<defs>
<linearGradient id="paint0_linear_1772_1693" x1="21.6388" y1="13.6539" x2="6.81255" y2="28.7366" gradientUnits="userSpaceOnUse">
<stop stop-color="#00A0FF"/>
<stop offset="0.01" stop-color="#00A1FF"/>
<stop offset="0.26" stop-color="#00BEFF"/>
<stop offset="0.51" stop-color="#00D2FF"/>
<stop offset="0.76" stop-color="#00DFFF"/>
<stop offset="1" stop-color="#00E3FF"/>
</linearGradient>
<linearGradient id="paint1_linear_1772_1693" x1="32.4538" y1="23.6309" x2="10.7074" y2="23.6309" gradientUnits="userSpaceOnUse">
<stop stop-color="#FFE000"/>
<stop offset="0.41" stop-color="#FFBD00"/>
<stop offset="0.78" stop-color="#FFA500"/>
<stop offset="1" stop-color="#FF9C00"/>
</linearGradient>
<linearGradient id="paint2_linear_1772_1693" x1="24.3626" y1="25.6634" x2="4.25244" y2="46.1124" gradientUnits="userSpaceOnUse">
<stop stop-color="#FF3A44"/>
<stop offset="1" stop-color="#C31162"/>
</linearGradient>
<linearGradient id="paint3_linear_1772_1693" x1="8.60346" y1="6.11597" x2="17.5805" y2="15.2483" gradientUnits="userSpaceOnUse">
<stop stop-color="#32A071"/>
<stop offset="0.07" stop-color="#2DA771"/>
<stop offset="0.48" stop-color="#15CF74"/>
<stop offset="0.8" stop-color="#06E775"/>
<stop offset="1" stop-color="#00F076"/>
</linearGradient>
</defs>
</svg>
