<svg width="140" height="47" viewBox="0 0 140 47" fill="none" xmlns="http://www.w3.org/2000/svg">
<rect width="139.761" height="47" rx="5" fill="black"/>
<path d="M11.4264 12.4881C11.1301 12.8324 10.979 13.275 11.0039 13.7253V33.2727C10.9733 33.7238 11.1251 34.1684 11.4264 34.5099L11.4893 34.5806L22.6277 23.6316V23.3665L11.4893 12.4263L11.4264 12.4881Z" fill="url(#paint0_linear_1772_1629)"/>
<path d="M26.3138 27.2813L22.6279 23.6316V23.3665L26.3138 19.7168L26.3947 19.7698L30.8087 22.2265C32.0673 22.9246 32.0673 24.0734 30.8087 24.7804L26.4127 27.2371L26.3138 27.2813Z" fill="url(#paint1_linear_1772_1629)"/>
<path d="M26.4213 27.2282L22.6276 23.499L11.4263 34.5099C11.6803 34.7322 12.0055 34.8601 12.3453 34.8714C12.6852 34.8827 13.0184 34.7767 13.2872 34.5718L26.4213 27.2282Z" fill="url(#paint2_linear_1772_1629)"/>
<path d="M26.4213 19.7698L13.2872 12.4351C13.0202 12.2274 12.6873 12.1188 12.3469 12.1285C12.0065 12.1382 11.6806 12.2656 11.4263 12.4882L22.6276 23.4991L26.4213 19.7698Z" fill="url(#paint3_linear_1772_1629)"/>
<path opacity="0.2" d="M26.3134 27.1487L13.2872 34.4392C13.0282 34.6313 12.7126 34.7352 12.3882 34.7352C12.0638 34.7352 11.7482 34.6313 11.4892 34.4392L11.4263 34.5011L11.4892 34.5718C11.7482 34.7639 12.0638 34.8678 12.3882 34.8678C12.7126 34.8678 13.0282 34.7639 13.2872 34.5718L26.4213 27.2282L26.3134 27.1487Z" fill="black"/>
<path opacity="0.12" d="M11.4261 34.3862C11.1373 34.0356 10.9958 33.5899 11.0305 33.1401V33.2727C11 33.7237 11.1518 34.1684 11.4531 34.5099L11.516 34.448L11.4261 34.3862Z" fill="black"/>
<path opacity="0.12" d="M30.8084 24.6478L26.3135 27.1487L26.3944 27.2282L30.8084 24.7716C31.0689 24.6633 31.295 24.4879 31.4627 24.264C31.6304 24.04 31.7335 23.7758 31.7613 23.499C31.7051 23.7505 31.5896 23.9855 31.4241 24.185C31.2586 24.3846 31.0477 24.5431 30.8084 24.6478Z" fill="black"/>
<path opacity="0.25" d="M13.2873 12.5587L30.8085 22.3501C31.0478 22.4549 31.2587 22.6134 31.4242 22.813C31.5897 23.0125 31.7052 23.2475 31.7614 23.4989C31.7337 23.2222 31.6305 22.958 31.4628 22.734C31.2951 22.5101 31.0691 22.3347 30.8085 22.2264L13.2873 12.435C12.0377 11.7281 11.0039 12.3113 11.0039 13.7252V13.8578C11.0309 12.4439 12.0377 11.8606 13.2873 12.5587Z" fill="black"/>
<path d="M45.8312 13.23H48.3012V16.73C47.9146 16.8567 47.5246 16.95 47.1312 17.01C46.7379 17.07 46.2912 17.1 45.7912 17.1C45.0512 17.1 44.4279 16.9533 43.9212 16.66C43.4146 16.36 43.0279 15.9367 42.7612 15.39C42.5012 14.8367 42.3712 14.1833 42.3712 13.43C42.3712 12.6833 42.5179 12.0367 42.8112 11.49C43.1046 10.9433 43.5246 10.52 44.0712 10.22C44.6246 9.91333 45.2912 9.76 46.0712 9.76C46.4712 9.76 46.8479 9.79667 47.2012 9.87C47.5612 9.94333 47.8946 10.0467 48.2012 10.18L47.8612 10.96C47.6079 10.8467 47.3212 10.75 47.0012 10.67C46.6879 10.59 46.3612 10.55 46.0212 10.55C45.4546 10.55 44.9679 10.6667 44.5612 10.9C44.1546 11.1333 43.8446 11.4667 43.6312 11.9C43.4179 12.3267 43.3112 12.8367 43.3112 13.43C43.3112 13.9967 43.4012 14.5 43.5812 14.94C43.7679 15.3733 44.0579 15.7133 44.4512 15.96C44.8446 16.2 45.3612 16.32 46.0012 16.32C46.2146 16.32 46.4012 16.3133 46.5612 16.3C46.7279 16.28 46.8779 16.2567 47.0112 16.23C47.1512 16.2033 47.2812 16.1767 47.4012 16.15V14.03H45.8312V13.23ZM53.9966 17H50.0066V9.86H53.9966V10.65H50.9066V12.88H53.8166V13.66H50.9066V16.21H53.9966V17ZM57.8233 17H56.9233V10.65H54.6933V9.86H60.0433V10.65H57.8233V17ZM66.2549 17H63.6749V16.48L64.5149 16.29V10.58L63.6749 10.38V9.86H66.2549V10.38L65.4149 10.58V16.29L66.2549 16.48V17ZM69.8936 17H68.9936V10.65H66.7636V9.86H72.1136V10.65H69.8936V17ZM82.5452 13.42C82.5452 13.9733 82.4752 14.4767 82.3352 14.93C82.1952 15.3767 81.9852 15.7633 81.7052 16.09C81.4319 16.4167 81.0885 16.6667 80.6752 16.84C80.2685 17.0133 79.7952 17.1 79.2552 17.1C78.6952 17.1 78.2085 17.0133 77.7952 16.84C77.3819 16.66 77.0385 16.41 76.7652 16.09C76.4919 15.7633 76.2885 15.3733 76.1552 14.92C76.0219 14.4667 75.9552 13.9633 75.9552 13.41C75.9552 12.6767 76.0752 12.0367 76.3152 11.49C76.5552 10.9433 76.9185 10.5167 77.4052 10.21C77.8985 9.90333 78.5185 9.75 79.2652 9.75C79.9785 9.75 80.5785 9.90333 81.0652 10.21C81.5519 10.51 81.9185 10.9367 82.1652 11.49C82.4185 12.0367 82.5452 12.68 82.5452 13.42ZM76.9052 13.42C76.9052 14.02 76.9885 14.5367 77.1552 14.97C77.3219 15.4033 77.5785 15.7367 77.9252 15.97C78.2785 16.2033 78.7219 16.32 79.2552 16.32C79.7952 16.32 80.2352 16.2033 80.5752 15.97C80.9219 15.7367 81.1785 15.4033 81.3452 14.97C81.5119 14.5367 81.5952 14.02 81.5952 13.42C81.5952 12.52 81.4085 11.8167 81.0352 11.31C80.6619 10.7967 80.0719 10.54 79.2652 10.54C78.7252 10.54 78.2785 10.6567 77.9252 10.89C77.5785 11.1167 77.3219 11.4467 77.1552 11.88C76.9885 12.3067 76.9052 12.82 76.9052 13.42ZM89.7877 17H88.7377L84.9177 11.07H84.8777C84.8844 11.19 84.891 11.3233 84.8977 11.47C84.911 11.6167 84.921 11.7767 84.9277 11.95C84.9344 12.1167 84.941 12.29 84.9477 12.47C84.9544 12.65 84.9577 12.83 84.9577 13.01V17H84.1277V9.86H85.1677L88.9777 15.77H89.0177C89.011 15.69 89.0044 15.58 88.9977 15.44C88.991 15.2933 88.9844 15.1333 88.9777 14.96C88.971 14.78 88.9644 14.5967 88.9577 14.41C88.951 14.2233 88.9477 14.05 88.9477 13.89V9.86H89.7877V17Z" fill="white"/>
<path d="M69.6873 27.9949C68.8243 27.997 67.9814 28.2643 67.2651 28.763C66.5487 29.2616 65.9911 29.9693 65.6628 30.7965C65.3344 31.6236 65.2501 32.5332 65.4204 33.41C65.5907 34.2869 66.0081 35.0917 66.6197 35.7227C67.2313 36.3537 68.0097 36.7825 68.8564 36.955C69.7031 37.1274 70.5801 37.0357 71.3766 36.6915C72.173 36.3472 72.8531 35.7659 73.3308 35.0211C73.8086 34.2762 74.0625 33.4012 74.0605 32.5067C74.0688 31.91 73.9612 31.3177 73.7442 30.765C73.5271 30.2123 73.2049 29.7105 72.7969 29.2895C72.3888 28.8685 71.9033 28.537 71.369 28.3146C70.8348 28.0921 70.2629 27.9834 69.6873 27.9949ZM69.6873 35.2457C69.1584 35.284 68.6306 35.1566 68.1725 34.8798C67.7144 34.6031 67.3472 34.19 67.1187 33.6941C66.8901 33.1982 66.8108 32.6425 66.8909 32.0992C66.9711 31.556 67.2071 31.0503 67.5682 30.6479C67.9293 30.2455 68.3989 29.965 68.9158 29.8429C69.4328 29.7208 69.9732 29.7627 70.4668 29.9632C70.9605 30.1637 71.3845 30.5135 71.6839 30.9671C71.9832 31.4207 72.144 31.9572 72.1453 32.5067C72.1618 32.855 72.1108 33.2031 71.9955 33.5306C71.8801 33.8581 71.7026 34.1583 71.4735 34.4136C71.2445 34.6688 70.9684 34.874 70.6616 35.0169C70.3548 35.1598 70.0235 35.2376 69.6873 35.2457ZM60.142 27.9949C59.2791 27.997 58.4362 28.2643 57.7198 28.763C57.0035 29.2616 56.4459 29.9693 56.1175 30.7965C55.7892 31.6236 55.7048 32.5332 55.8752 33.41C56.0455 34.2869 56.4628 35.0917 57.0744 35.7227C57.686 36.3537 58.4644 36.7825 59.3111 36.955C60.1579 37.1274 61.0349 37.0357 61.8314 36.6915C62.6278 36.3472 63.3079 35.7659 63.7856 35.0211C64.2633 34.2762 64.5172 33.4012 64.5152 32.5067C64.5236 31.91 64.416 31.3177 64.1989 30.765C63.9818 30.2123 63.6597 29.7105 63.2516 29.2895C62.8436 28.8685 62.358 28.537 61.8238 28.3146C61.2896 28.0921 60.7176 27.9834 60.142 27.9949ZM60.142 35.2457C59.6131 35.284 59.0853 35.1566 58.6272 34.8798C58.1692 34.6031 57.802 34.19 57.5734 33.6941C57.3449 33.1982 57.2655 32.6425 57.3457 32.0992C57.4259 31.556 57.6619 31.0503 58.023 30.6479C58.3841 30.2455 58.8536 29.965 59.3706 29.8429C59.8875 29.7208 60.4279 29.7627 60.9216 29.9632C61.4152 30.1637 61.8393 30.5135 62.1386 30.9671C62.438 31.4207 62.5987 31.9572 62.6 32.5067C62.6165 32.855 62.5656 33.2031 62.4502 33.5306C62.3348 33.8581 62.1574 34.1583 61.9283 34.4136C61.6992 34.6688 61.4231 34.874 61.1164 35.0169C60.8096 35.1598 60.4783 35.2376 60.142 35.2457ZM48.7942 29.3856V31.2965H53.2186C53.1493 32.1965 52.7883 33.0458 52.1945 33.7063C51.7507 34.1751 51.2169 34.542 50.6276 34.7834C50.0384 35.0248 49.4068 35.1352 48.7738 35.1077C47.47 35.1077 46.2195 34.5708 45.2976 33.6152C44.3757 32.6595 43.8578 31.3634 43.8578 30.0119C43.8578 28.6605 44.3757 27.3644 45.2976 26.4087C46.2195 25.4531 47.47 24.9162 48.7738 24.9162C50.0237 24.8969 51.2306 25.389 52.133 26.2857L53.4337 24.9374C52.8233 24.3116 52.0985 23.8184 51.3019 23.4866C50.5052 23.1548 49.6527 22.9912 48.7942 23.0053C47.8838 22.9686 46.9755 23.1228 46.1238 23.4586C45.2722 23.7944 44.4948 24.305 43.838 24.9597C43.1813 25.6145 42.6589 26.3999 42.302 27.2689C41.9452 28.138 41.7612 29.0728 41.7612 30.0172C41.7612 30.9617 41.9452 31.8965 42.302 32.7655C42.6589 33.6346 43.1813 34.42 43.838 35.0748C44.4948 35.7295 45.2722 36.2401 46.1238 36.5759C46.9755 36.9117 47.8838 37.0659 48.7942 37.0292C49.6703 37.0655 50.5439 36.9092 51.3576 36.5707C52.1713 36.2323 52.9068 35.7192 53.5157 35.0652C54.5911 33.8405 55.1642 32.2298 55.1134 30.5746C55.117 30.1762 55.0862 29.7783 55.0212 29.3856H48.7942ZM95.1993 30.8718C94.9322 30.0573 94.4327 29.3461 93.767 28.8323C93.1012 28.3186 92.3007 28.0265 91.4713 27.9949C90.9111 27.9937 90.3566 28.1117 89.8421 28.3415C89.3276 28.5713 88.864 28.9081 88.4801 29.331C88.0961 29.7538 87.7999 30.2538 87.6098 30.8001C87.4196 31.3463 87.3396 31.9272 87.3746 32.5067C87.3659 33.4758 87.6598 34.4218 88.2125 35.2035C88.7652 35.9852 89.5471 36.5605 90.4412 36.8436C91.3354 37.1266 92.294 37.1023 93.1737 36.7741C94.0534 36.4459 94.8071 35.8315 95.3222 35.0227L93.8371 33.9611C93.6157 34.3436 93.3017 34.6595 92.9263 34.8773C92.5508 35.0952 92.1269 35.2076 91.6966 35.2032C91.2527 35.2222 90.8136 35.1016 90.4371 34.8572C90.0606 34.6128 89.7642 34.256 89.5868 33.8337L95.4143 31.339L95.1993 30.8718ZM89.2591 32.3793C89.2383 32.0496 89.2813 31.7188 89.3853 31.4065C89.4894 31.0941 89.6526 30.8065 89.8653 30.5603C90.078 30.3141 90.3359 30.1144 90.624 29.9729C90.9121 29.8313 91.2245 29.7508 91.543 29.7359C91.873 29.715 92.2016 29.7956 92.4876 29.9674C92.7736 30.1393 93.0044 30.3948 93.1509 30.702L89.2591 32.3793ZM84.5274 36.7532H86.4426V23.483H84.5274V36.7532ZM81.3935 29.0034H81.3218C81.0357 28.6657 80.6826 28.396 80.2866 28.2127C79.8907 28.0295 79.4613 27.9371 79.0277 27.9418C77.9084 27.9981 76.853 28.4985 76.0801 29.3395C75.3072 30.1805 74.876 31.2974 74.876 32.459C74.876 33.6205 75.3072 34.7374 76.0801 35.5784C76.853 36.4194 77.9084 36.9199 79.0277 36.9761C79.4619 36.9851 79.8926 36.8947 80.2892 36.7111C80.6858 36.5276 81.0384 36.2556 81.3218 35.9145H81.3935V36.5621C81.3935 38.2925 80.5025 39.2161 79.0686 39.2161C78.5897 39.2052 78.1246 39.047 77.7325 38.7616C77.3405 38.4762 77.0391 38.0764 76.8667 37.6131L75.2075 38.3244C75.5143 39.123 76.0476 39.8062 76.737 40.2839C77.4264 40.7616 78.2395 41.0112 79.0686 40.9996C81.3116 40.9996 83.1653 39.6301 83.1653 36.2967V28.2603H81.3935V29.0034ZM79.1915 35.2457C78.5205 35.2023 77.8906 34.8954 77.4303 34.3875C76.9699 33.8797 76.7136 33.2089 76.7136 32.512C76.7136 31.8151 76.9699 31.1444 77.4303 30.6365C77.8906 30.1286 78.5205 29.8218 79.1915 29.7784C79.5195 29.7931 79.8413 29.876 80.1377 30.0222C80.4342 30.1684 80.6992 30.3749 80.917 30.6295C81.1349 30.884 81.3011 31.1814 81.4059 31.5039C81.5106 31.8264 81.5517 32.1674 81.5266 32.5067C81.5546 32.8472 81.5156 33.19 81.4121 33.5144C81.3086 33.8388 81.1427 34.138 80.9244 34.394C80.7061 34.6501 80.44 34.8576 80.1421 35.0039C79.8443 35.1503 79.5209 35.2326 79.1915 35.2457ZM104.171 23.483H99.5827V36.7532H101.498V31.7211H104.171C104.717 31.7618 105.265 31.6854 105.781 31.4968C106.297 31.3083 106.77 31.0115 107.171 30.625C107.571 30.2385 107.891 29.7707 108.109 29.2506C108.328 28.7305 108.44 28.1693 108.44 27.6021C108.44 27.0348 108.328 26.4737 108.109 25.9536C107.891 25.4335 107.571 24.9656 107.171 24.5792C106.77 24.1927 106.297 23.8959 105.781 23.7073C105.265 23.5187 104.717 23.4424 104.171 23.483ZM104.171 29.8527H101.498V25.3302H104.212C104.5 25.3302 104.785 25.389 105.051 25.5032C105.317 25.6173 105.558 25.7847 105.762 25.9956C105.965 26.2066 106.127 26.4571 106.237 26.7327C106.347 27.0083 106.404 27.3037 106.404 27.6021C106.404 27.9004 106.347 28.1959 106.237 28.4715C106.127 28.7471 105.965 28.9976 105.762 29.2085C105.558 29.4195 105.317 29.5868 105.051 29.701C104.785 29.8152 104.5 29.8739 104.212 29.8739L104.171 29.8527ZM115.99 27.9524C115.292 27.9078 114.598 28.0761 113.992 28.4365C113.385 28.7969 112.894 29.3336 112.579 29.9801L114.269 30.7126C114.44 30.3935 114.696 30.1324 115.007 29.961C115.318 29.7896 115.67 29.7151 116.021 29.7465C116.264 29.7171 116.51 29.7382 116.745 29.8085C116.98 29.8788 117.2 29.9969 117.39 30.156C117.581 30.3151 117.739 30.512 117.856 30.7351C117.972 30.9583 118.045 31.2032 118.069 31.4557V31.5831C117.453 31.2476 116.768 31.0727 116.072 31.0736C114.249 31.0736 112.385 32.1352 112.385 34.0673C112.403 34.478 112.5 34.8807 112.671 35.2516C112.843 35.6224 113.084 35.9539 113.381 36.2262C113.678 36.4985 114.025 36.7062 114.401 36.8368C114.777 36.9675 115.175 37.0184 115.57 36.9867C116.051 37.0143 116.53 36.9089 116.958 36.6813C117.386 36.4537 117.748 36.1121 118.007 35.6916H118.069V36.7532H119.912V31.6468C119.912 29.3219 118.212 27.9736 116.031 27.9736L115.99 27.9524ZM115.754 35.2245C115.13 35.2245 114.259 34.8954 114.259 34.0991C114.259 33.0375 115.345 32.6766 116.307 32.6766C116.916 32.661 117.517 32.815 118.048 33.1225C117.984 33.699 117.72 34.2318 117.306 34.6222C116.892 35.0126 116.355 35.2341 115.795 35.2457L115.754 35.2245ZM126.631 28.2603L124.439 34.0142H124.378L122.104 28.2603H120.056L123.466 36.3073L121.52 40.7767H123.517L128.761 28.2603H126.631ZM109.425 36.7532H111.33V23.483H109.425V36.7532Z" fill="white"/>
<defs>
<linearGradient id="paint0_linear_1772_1629" x1="21.6388" y1="13.5221" x2="6.81255" y2="28.6048" gradientUnits="userSpaceOnUse">
<stop stop-color="#00A0FF"/>
<stop offset="0.01" stop-color="#00A1FF"/>
<stop offset="0.26" stop-color="#00BEFF"/>
<stop offset="0.51" stop-color="#00D2FF"/>
<stop offset="0.76" stop-color="#00DFFF"/>
<stop offset="1" stop-color="#00E3FF"/>
</linearGradient>
<linearGradient id="paint1_linear_1772_1629" x1="32.4538" y1="23.499" x2="10.7074" y2="23.499" gradientUnits="userSpaceOnUse">
<stop stop-color="#FFE000"/>
<stop offset="0.41" stop-color="#FFBD00"/>
<stop offset="0.78" stop-color="#FFA500"/>
<stop offset="1" stop-color="#FF9C00"/>
</linearGradient>
<linearGradient id="paint2_linear_1772_1629" x1="24.3626" y1="25.5315" x2="4.25244" y2="45.9806" gradientUnits="userSpaceOnUse">
<stop stop-color="#FF3A44"/>
<stop offset="1" stop-color="#C31162"/>
</linearGradient>
<linearGradient id="paint3_linear_1772_1629" x1="8.60346" y1="5.98414" x2="17.5805" y2="15.1165" gradientUnits="userSpaceOnUse">
<stop stop-color="#32A071"/>
<stop offset="0.07" stop-color="#2DA771"/>
<stop offset="0.48" stop-color="#15CF74"/>
<stop offset="0.8" stop-color="#06E775"/>
<stop offset="1" stop-color="#00F076"/>
</linearGradient>
</defs>
</svg>
