<svg width="48" height="48" viewBox="0 0 48 48" fill="none" xmlns="http://www.w3.org/2000/svg">
<rect width="48" height="48" rx="10" fill="#EA1A4C" fill-opacity="0.09"/>
<path opacity="0.2" d="M36.9375 30.6515V17.3484C36.9364 17.1481 36.8826 16.9516 36.7813 16.7788C36.6801 16.606 36.5351 16.4629 36.3609 16.364L24.5484 9.68431C24.3817 9.58804 24.1925 9.53735 24 9.53735C23.8075 9.53735 23.6183 9.58804 23.4516 9.68431L11.6391 16.364C11.4649 16.4629 11.3199 16.606 11.2187 16.7788C11.1174 16.9516 11.0636 17.1481 11.0625 17.3484V30.6515C11.0636 30.8518 11.1174 31.0482 11.2187 31.2211C11.3199 31.3939 11.4649 31.537 11.6391 31.6359L23.4516 38.3156C23.6183 38.4118 23.8075 38.4625 24 38.4625C24.1925 38.4625 24.3817 38.4118 24.5484 38.3156L36.3609 31.6359C36.5351 31.537 36.6801 31.3939 36.7813 31.2211C36.8826 31.0482 36.9364 30.8518 36.9375 30.6515Z" fill="#EA1A4C"/>
<path d="M36.9375 30.6515V17.3484C36.9364 17.1481 36.8826 16.9516 36.7813 16.7788C36.6801 16.606 36.5351 16.4629 36.3609 16.364L24.5484 9.68431C24.3817 9.58804 24.1925 9.53735 24 9.53735C23.8075 9.53735 23.6183 9.58804 23.4516 9.68431L11.6391 16.364C11.4649 16.4629 11.3199 16.606 11.2187 16.7788C11.1174 16.9516 11.0636 17.1481 11.0625 17.3484V30.6515C11.0636 30.8518 11.1174 31.0482 11.2187 31.2211C11.3199 31.3939 11.4649 31.537 11.6391 31.6359L23.4516 38.3156C23.6183 38.4118 23.8075 38.4625 24 38.4625C24.1925 38.4625 24.3817 38.4118 24.5484 38.3156L36.3609 31.6359C36.5351 31.537 36.6801 31.3939 36.7813 31.2211C36.8826 31.0482 36.9364 30.8518 36.9375 30.6515V30.6515Z" stroke="#EA1A4C" stroke-width="2" stroke-linecap="round" stroke-linejoin="round"/>
</svg>
