<svg width="24" height="25" viewBox="0 0 24 25" fill="none" xmlns="http://www.w3.org/2000/svg">
<g clip-path="url(#clip0_1772_1960)">
<path d="M12 2.79277C15.2063 2.79277 15.5859 2.80684 16.8469 2.86309C18.0188 2.91465 18.6516 3.11152 19.0734 3.27559C19.6313 3.49121 20.0344 3.75371 20.4516 4.1709C20.8734 4.59277 21.1313 4.99121 21.3469 5.54902C21.5109 5.9709 21.7078 6.6084 21.7594 7.77559C21.8156 9.04121 21.8297 9.4209 21.8297 12.6225C21.8297 15.8287 21.8156 16.2084 21.7594 17.4693C21.7078 18.6412 21.5109 19.274 21.3469 19.6959C21.1313 20.2537 20.8687 20.6568 20.4516 21.074C20.0297 21.4959 19.6313 21.7537 19.0734 21.9693C18.6516 22.1334 18.0141 22.3303 16.8469 22.3818C15.5813 22.4381 15.2016 22.4521 12 22.4521C8.79375 22.4521 8.41406 22.4381 7.15313 22.3818C5.98125 22.3303 5.34844 22.1334 4.92656 21.9693C4.36875 21.7537 3.96563 21.4912 3.54844 21.074C3.12656 20.6521 2.86875 20.2537 2.65313 19.6959C2.48906 19.274 2.29219 18.6365 2.24063 17.4693C2.18438 16.2037 2.17031 15.824 2.17031 12.6225C2.17031 9.41621 2.18438 9.03652 2.24063 7.77559C2.29219 6.60371 2.48906 5.9709 2.65313 5.54902C2.86875 4.99121 3.13125 4.58809 3.54844 4.1709C3.97031 3.74902 4.36875 3.49121 4.92656 3.27559C5.34844 3.11152 5.98594 2.91465 7.15313 2.86309C8.41406 2.80684 8.79375 2.79277 12 2.79277ZM12 0.631836C8.74219 0.631836 8.33438 0.645898 7.05469 0.702148C5.77969 0.758398 4.90313 0.964648 4.14375 1.25996C3.35156 1.56934 2.68125 1.97715 2.01563 2.64746C1.34531 3.31309 0.9375 3.9834 0.628125 4.7709C0.332812 5.53496 0.126563 6.40684 0.0703125 7.68184C0.0140625 8.96621 0 9.37402 0 12.6318C0 15.8896 0.0140625 16.2975 0.0703125 17.5771C0.126563 18.8521 0.332812 19.7287 0.628125 20.4881C0.9375 21.2803 1.34531 21.9506 2.01563 22.6162C2.68125 23.2818 3.35156 23.6943 4.13906 23.999C4.90313 24.2943 5.775 24.5006 7.05 24.5568C8.32969 24.6131 8.7375 24.6271 11.9953 24.6271C15.2531 24.6271 15.6609 24.6131 16.9406 24.5568C18.2156 24.5006 19.0922 24.2943 19.8516 23.999C20.6391 23.6943 21.3094 23.2818 21.975 22.6162C22.6406 21.9506 23.0531 21.2803 23.3578 20.4928C23.6531 19.7287 23.8594 18.8568 23.9156 17.5818C23.9719 16.3021 23.9859 15.8943 23.9859 12.6365C23.9859 9.37871 23.9719 8.9709 23.9156 7.69121C23.8594 6.41621 23.6531 5.53965 23.3578 4.78027C23.0625 3.9834 22.6547 3.31309 21.9844 2.64746C21.3188 1.98184 20.6484 1.56934 19.8609 1.26465C19.0969 0.969336 18.225 0.763086 16.95 0.706836C15.6656 0.645898 15.2578 0.631836 12 0.631836Z" fill="#676767"/>
<path d="M12 6.46777C8.59688 6.46777 5.83594 9.22871 5.83594 12.6318C5.83594 16.035 8.59688 18.7959 12 18.7959C15.4031 18.7959 18.1641 16.035 18.1641 12.6318C18.1641 9.22871 15.4031 6.46777 12 6.46777ZM12 16.6303C9.79219 16.6303 8.00156 14.8396 8.00156 12.6318C8.00156 10.424 9.79219 8.6334 12 8.6334C14.2078 8.6334 15.9984 10.424 15.9984 12.6318C15.9984 14.8396 14.2078 16.6303 12 16.6303Z" fill="#676767"/>
<path d="M19.8469 6.22422C19.8469 7.0211 19.2 7.66328 18.4078 7.66328C17.6109 7.66328 16.9688 7.01641 16.9688 6.22422C16.9688 5.42734 17.6156 4.78516 18.4078 4.78516C19.2 4.78516 19.8469 5.43203 19.8469 6.22422Z" fill="#676767"/>
</g>
<defs>
<clipPath id="clip0_1772_1960">
<rect width="24" height="24" fill="white" transform="translate(0 0.631836)"/>
</clipPath>
</defs>
</svg>
