<svg width="121" height="23" viewBox="0 0 121 23" fill="none" xmlns="http://www.w3.org/2000/svg">
<path d="M0.404238 0.131836H3.54321V3.2683H0.404238V0.131836Z" fill="#EA1A4C"/>
<path d="M16.0991 0.131836H19.2381V3.2683H16.0991V0.131836Z" fill="#EA1A4C"/>
<path d="M6.68224 6.40463H9.8212V9.54109H6.68224V6.40463Z" fill="#EA1A4C"/>
<path d="M12.9601 12.6778H16.0991V15.8143H12.9601V12.6778Z" fill="#EA1A4C"/>
<path d="M0.404238 12.6778H3.54321V15.8143H0.404238V12.6778Z" fill="#EA1A4C"/>
<path d="M6.68224 12.6778H9.8212V15.8143H6.68224V12.6778Z" fill="#EA1A4C"/>
<path d="M6.68224 9.54109H9.8212V12.6778H6.68224V9.54109Z" fill="#EA1A4C"/>
<path d="M9.8212 9.54109L12.9602 9.54121L12.9601 12.6778H9.8212V9.54109Z" fill="#EA1A4C"/>
<path d="M9.8212 12.6778H12.9601V15.8143H9.8212V12.6778Z" fill="#EA1A4C"/>
<path d="M12.9602 9.54121H16.0991V12.6778H12.9601L12.9602 9.54121Z" fill="#EA1A4C"/>
<path d="M12.9601 6.40463H16.0991V9.54121H12.9602L12.9601 6.40463Z" fill="#EA1A4C"/>
<path d="M9.8212 6.40463H12.9601L12.9602 9.54121L9.8212 9.54109V6.40463Z" fill="#EA1A4C"/>
<path d="M19.6526 11.5239H21.9621V13.8315H19.6526V11.5239Z" fill="#EA1A4C"/>
<path fill-rule="evenodd" clip-rule="evenodd" d="M22.2281 11.2584H19.3869V14.0973H22.2281V11.2584ZM18.8338 10.7057V14.65H22.7812V10.7057H18.8338Z" fill="#EA1A4C"/>
<path d="M0.818998 5.25109H3.1285V7.55875H0.818998V5.25109Z" fill="#EA1A4C"/>
<path fill-rule="evenodd" clip-rule="evenodd" d="M3.39433 4.98541H0.553146V7.82432H3.39433V4.98541ZM0 4.4327V8.37703H3.94748V4.4327H0Z" fill="#EA1A4C"/>
<path d="M19.2381 3.2683L22.3771 3.26842V6.40488H19.2381L19.2381 3.2683Z" fill="#EA1A4C"/>
<path d="M19.2381 0.131836H22.3771V3.26842L19.2381 3.2683V0.131836Z" fill="#EA1A4C"/>
<path d="M0.404238 15.8143H3.54321V18.9508H0.404238V15.8143Z" fill="#EA1A4C"/>
<path d="M0.404238 18.9508H3.54321V22.087H0.404238V18.9508Z" fill="#EA1A4C"/>
<path d="M19.2381 6.40488H22.3771V9.54109H19.2381V6.40488Z" fill="#EA1A4C"/>
<path d="M3.54321 18.9508L6.6822 18.9506V22.087H3.54321V18.9508Z" fill="#EA1A4C"/>
<path d="M0.404238 9.54121H3.54321V12.6778H0.404238V9.54121Z" fill="#EA1A4C"/>
<path d="M12.9601 18.9506H16.0991V22.087H12.9601V18.9506Z" fill="#EA1A4C"/>
<path d="M16.0991 18.9506H19.2381V22.087H16.0991V18.9506Z" fill="#EA1A4C"/>
<path d="M19.2381 15.8144H22.3771V18.9508L19.2381 18.9506L19.2381 15.8144Z" fill="#EA1A4C"/>
<path d="M19.2381 18.9506L22.3771 18.9508V22.087H19.2381V18.9506Z" fill="#EA1A4C"/>
<path d="M9.82123 18.9506H12.9601V22.087H9.82123V18.9506Z" fill="#EA1A4C"/>
<path d="M6.68224 0.131836H9.8212V3.2683H6.68224V0.131836Z" fill="#EA1A4C"/>
<path d="M9.8212 0.131836H12.9602V3.2683H9.8212V0.131836Z" fill="#EA1A4C"/>
<path d="M3.54321 0.131836H6.68224V3.2683H3.54321V0.131836Z" fill="#EA1A4C"/>
<path d="M44.6262 22.1318V5.6465H48.694V22.1318H44.6262ZM46.6314 4.64917C45.8484 4.64917 45.2373 4.45362 44.7981 4.0625C44.3588 3.67139 44.1392 3.11406 44.1392 2.3905C44.1392 1.72562 44.3588 1.18784 44.7981 0.77717C45.2564 0.346948 45.8675 0.131836 46.6314 0.131836C47.4144 0.131836 48.0256 0.33717 48.4648 0.747837C48.9041 1.13895 49.1237 1.6865 49.1237 2.3905C49.1237 3.07495 48.8945 3.6225 48.4362 4.03317C47.9969 4.44384 47.3954 4.64917 46.6314 4.64917Z" fill="#EA1A4C"/>
<path d="M79.8339 22.1318V0.131836H83.9017V22.1318H79.8339Z" fill="#EA1A4C"/>
<path d="M85.509 22.1318V5.6465H89.5769V22.1318H85.509ZM87.5143 4.64917C86.7313 4.64917 86.1202 4.45362 85.6809 4.0625C85.2417 3.67139 85.022 3.11406 85.022 2.3905C85.022 1.72562 85.2417 1.18784 85.6809 0.77717C86.1393 0.346948 86.7504 0.131836 87.5143 0.131836C88.2973 0.131836 88.9084 0.33717 89.3477 0.747837C89.7869 1.13895 90.0065 1.6865 90.0065 2.3905C90.0065 3.07495 89.7774 3.6225 89.319 4.03317C88.8798 4.44384 88.2782 4.64917 87.5143 4.64917Z" fill="#EA1A4C"/>
<path d="M98.1039 22.1318C96.557 22.1318 95.1724 21.7896 93.9501 21.1052C92.747 20.4012 91.7921 19.4429 91.0855 18.2305C90.398 17.0181 90.0542 15.6296 90.0542 14.0652C90.0542 12.5007 90.398 11.1221 91.0855 9.92917C91.7921 8.71672 92.747 7.7585 93.9501 7.0545C95.1724 6.3505 96.557 5.9985 98.1039 5.9985C99.6317 5.9985 100.997 6.3505 102.2 7.0545C103.423 7.7585 104.377 8.71672 105.065 9.92917C105.753 11.1221 106.096 12.5007 106.096 14.0652C106.096 15.6296 105.753 17.0181 105.065 18.2305C104.377 19.4429 103.423 20.4012 102.2 21.1052C100.997 21.7896 99.6317 22.1318 98.1039 22.1318ZM98.1039 18.4945C98.8487 18.4945 99.5171 18.3087 100.109 17.9372C100.701 17.5461 101.16 17.0181 101.484 16.3532C101.828 15.6687 102 14.9061 102 14.0652C102 13.2047 101.828 12.4421 101.484 11.7772C101.16 11.0927 100.701 10.5647 100.109 10.1932C99.5171 9.80206 98.8487 9.6065 98.1039 9.6065C97.34 9.6065 96.662 9.80206 96.07 10.1932C95.478 10.5843 95.0101 11.1123 94.6663 11.7772C94.3226 12.4421 94.1602 13.2047 94.1793 14.0652C94.1602 14.9061 94.3226 15.6687 94.6663 16.3532C95.0101 17.0181 95.478 17.5461 96.07 17.9372C96.662 18.3087 97.34 18.4945 98.1039 18.4945Z" fill="#EA1A4C"/>
<path fill-rule="evenodd" clip-rule="evenodd" d="M30.1516 0.131836V22.1318H34.4486V13.2438H42.4983V9.45984H34.4486V4.09184H43.7014V0.131836H34.4486V4.09184H32.1282V0.131836H30.1516Z" fill="#EA1A4C"/>
<path d="M34.4486 0.131836H32.1282V4.09184H34.4486V0.131836Z" fill="#EA1A4C"/>
<path fill-rule="evenodd" clip-rule="evenodd" d="M52.5517 21.1052C53.602 21.7896 54.7861 22.1318 56.1038 22.1318C56.8104 22.1318 57.4788 22.0341 58.1091 21.8385C58.7584 21.6234 59.3313 21.3398 59.8279 20.9878C60.216 20.7082 60.5446 20.4064 60.8137 20.0824L60.8591 22.1318H64.6978L64.7837 0.131836H60.7159V7.96564C60.4817 7.71493 60.2144 7.47966 59.9138 7.25984C59.3982 6.86872 58.8061 6.56562 58.1377 6.3505C57.4884 6.11584 56.8104 5.9985 56.1038 5.9985C54.767 5.9985 53.5734 6.3505 52.523 7.0545C51.4917 7.7585 50.6705 8.71672 50.0594 9.92917C49.4674 11.1416 49.1714 12.5203 49.1714 14.0652C49.1714 15.6492 49.4674 17.0474 50.0594 18.2598C50.6705 19.4527 51.5013 20.4012 52.5517 21.1052ZM60.7159 10.2518V7.96564C60.8984 8.16099 61.0607 8.36573 61.2029 8.57984C61.5276 9.04917 61.709 9.54784 61.7472 10.0758L60.7159 10.2518ZM59.0258 18.0838C58.4528 18.4749 57.7844 18.6705 57.0205 18.6705C56.2566 18.6705 55.5882 18.4749 55.0153 18.0838C54.4614 17.6927 54.0222 17.1549 53.6975 16.4705C53.392 15.7861 53.2392 14.9843 53.2392 14.0652C53.2392 13.1656 53.392 12.3736 53.6975 11.6892C54.0222 10.9852 54.4614 10.4474 55.0153 10.0758C55.5882 9.68472 56.2566 9.48917 57.0205 9.48917C57.7844 9.48917 58.4528 9.68472 59.0258 10.0758C59.5987 10.4474 60.0475 10.9852 60.3722 11.6892C60.6968 12.3736 60.8591 13.1656 60.8591 14.0652C60.8591 14.9843 60.6968 15.7861 60.3722 16.4705C60.0475 17.1549 59.5987 17.6927 59.0258 18.0838Z" fill="#EA1A4C"/>
<path d="M61.7472 10.0758C61.709 9.54784 61.5276 9.04917 61.2029 8.57984C61.0607 8.36573 60.8984 8.16099 60.7159 7.96564V10.2518L61.7472 10.0758Z" fill="#EA1A4C"/>
<path fill-rule="evenodd" clip-rule="evenodd" d="M68.7781 21.1052C70.0004 21.7896 71.4327 22.1318 73.0751 22.1318C73.7626 22.1318 74.4597 22.0438 75.1663 21.8678C75.8729 21.6918 76.5604 21.4376 77.2289 21.1052C77.8973 20.7532 78.5084 20.3229 79.0622 19.8145L77.1143 17.0278C76.484 17.5558 75.892 17.9274 75.3382 18.1425C74.7843 18.3576 74.1732 18.4652 73.5048 18.4652C72.5308 18.4652 71.681 18.2794 70.9553 17.9078C70.2487 17.5167 69.6948 16.9789 69.2938 16.2945C69.0766 15.9054 68.9212 15.4751 68.8275 15.0038H79.6352L79.6638 13.7132C79.702 12.5985 79.5492 11.5718 79.2055 10.6332C78.8617 9.6945 78.3652 8.88295 77.7158 8.1985C77.0856 7.4945 76.3313 6.95672 75.4528 6.58517C74.5743 6.19406 73.6194 5.9985 72.5881 5.9985C71.4805 5.9985 70.4492 6.20384 69.4943 6.6145C68.5585 7.00561 67.7468 7.57273 67.0593 8.31584C66.3718 9.03939 65.8371 9.89983 65.4551 10.8972C65.0732 11.8945 64.8822 12.9896 64.8822 14.1825C64.8822 15.7274 65.226 17.0963 65.9135 18.2892C66.601 19.4821 67.5559 20.4207 68.7781 21.1052ZM67.4604 15.0038H68.8275C68.8233 14.9829 68.8193 14.962 68.8154 14.9409C68.7523 14.6015 68.7208 14.2412 68.7208 13.8598C68.7208 13.3481 68.7682 12.8788 68.8629 12.4519L75.8252 12.4518V12.3345C75.787 11.8065 75.6151 11.3274 75.3095 10.8972C75.0231 10.4669 74.6507 10.1345 74.1923 9.89984C73.734 9.66517 73.2183 9.54784 72.6454 9.54784C71.8051 9.54784 71.0889 9.71406 70.4969 10.0465C69.924 10.3789 69.4847 10.8678 69.1792 11.5132C69.0438 11.7992 68.9383 12.1121 68.8629 12.4519L66.8015 12.4518L67.4604 15.0038Z" fill="#EA1A4C"/>
<path d="M66.8015 12.4518L67.4604 15.0038H68.8275C68.8233 14.9829 68.8193 14.962 68.8154 14.9409C68.7523 14.6015 68.7208 14.2412 68.7208 13.8598C68.7208 13.3481 68.7682 12.8788 68.8629 12.4519L66.8015 12.4518Z" fill="#EA1A4C"/>
<path d="M106.292 6.32117V22.1318H107.18H108.355H110.36V12.5105C110.36 12.0998 110.436 11.7185 110.589 11.3665C110.761 11.0145 110.981 10.7016 111.248 10.4278C111.534 10.1541 111.869 9.94872 112.251 9.81184C112.652 9.65539 113.081 9.57717 113.54 9.57717C114.113 9.53806 114.59 9.63584 114.972 9.8705C115.373 10.0856 115.669 10.4278 115.86 10.8972C116.051 11.3665 116.147 11.9532 116.147 12.6572V22.1318H120.214V12.3345C120.214 10.9461 120.014 9.7825 119.613 8.84384C119.231 7.88561 118.648 7.17184 117.865 6.7025C117.101 6.23317 116.147 5.9985 115.001 5.9985C114.16 5.9985 113.358 6.1745 112.594 6.5265C111.83 6.8785 111.172 7.34784 110.618 7.9345C110.49 8.07029 110.371 8.21 110.262 8.35363L110.303 9.48917L109.501 9.84117C109.658 9.31317 109.907 8.82367 110.247 8.37267C110.252 8.36632 110.257 8.35997 110.262 8.35363L110.188 6.32117H106.292Z" fill="#EA1A4C"/>
<path d="M109.501 9.84117L110.303 9.48917L110.262 8.35363C110.257 8.35997 110.252 8.36632 110.247 8.37267C109.907 8.82367 109.658 9.31317 109.501 9.84117Z" fill="#EA1A4C"/>
</svg>
