<svg width="153" height="28" viewBox="0 0 153 28" fill="none" xmlns="http://www.w3.org/2000/svg">
<path d="M0.514485 0H4.50953V3.99186H0.514485V0Z" fill="#07012C"/>
<path d="M20.4898 0H24.4849V3.99186H20.4898V0Z" fill="#07012C"/>
<path d="M8.50466 7.98355H12.4997V11.9754H8.50466V7.98355Z" fill="#07012C"/>
<path d="M16.4947 15.9676H20.4898V19.9594H16.4947V15.9676Z" fill="#07012C"/>
<path d="M0.514485 15.9676H4.50953V19.9594H0.514485V15.9676Z" fill="#07012C"/>
<path d="M8.50466 15.9676H12.4997V19.9594H8.50466V15.9676Z" fill="#07012C"/>
<path d="M8.50466 11.9754H12.4997V15.9676H8.50466V11.9754Z" fill="#07012C"/>
<path d="M12.4997 11.9754L16.4948 11.9756L16.4947 15.9676H12.4997V11.9754Z" fill="#07012C"/>
<path d="M12.4997 15.9676H16.4947V19.9594H12.4997V15.9676Z" fill="#07012C"/>
<path d="M16.4948 11.9756H20.4898V15.9676H16.4947L16.4948 11.9756Z" fill="#07012C"/>
<path d="M16.4947 7.98355H20.4898V11.9756H16.4948L16.4947 7.98355Z" fill="#07012C"/>
<path d="M12.4997 7.98355H16.4947L16.4948 11.9756L12.4997 11.9754V7.98355Z" fill="#07012C"/>
<path d="M25.0124 14.499H27.9518V17.436H25.0124V14.499Z" fill="#07012C"/>
<path fill-rule="evenodd" clip-rule="evenodd" d="M28.2903 14.1611H24.6742V17.7742H28.2903V14.1611ZM23.9702 13.4576V18.4777H28.9943V13.4576H23.9702Z" fill="#07012C"/>
<path d="M1.04236 6.51541H3.98173V9.45244H1.04236V6.51541Z" fill="#07012C"/>
<path fill-rule="evenodd" clip-rule="evenodd" d="M4.32006 6.17727H0.704004V9.79044H4.32006V6.17727ZM0 5.47383V10.4939H5.02406V5.47383H0Z" fill="#07012C"/>
<path d="M24.4849 3.99186L28.4799 3.99202V7.98387H24.4849L24.4849 3.99186Z" fill="#07012C"/>
<path d="M24.4849 0H28.4799V3.99202L24.4849 3.99186V0Z" fill="#07012C"/>
<path d="M0.514485 19.9594H4.50953V23.9515H0.514485V19.9594Z" fill="#07012C"/>
<path d="M0.514485 23.9515H4.50953V27.943H0.514485V23.9515Z" fill="#07012C"/>
<path d="M24.4849 7.98387H28.4799V11.9754H24.4849V7.98387Z" fill="#07012C"/>
<path d="M4.50953 23.9515L8.50462 23.9511V27.943H4.50953V23.9515Z" fill="#07012C"/>
<path d="M0.514485 11.9756H4.50953V15.9676H0.514485V11.9756Z" fill="#07012C"/>
<path d="M16.4947 23.9511H20.4898V27.943H16.4947V23.9511Z" fill="#07012C"/>
<path d="M20.4898 23.9511H24.4849V27.943H20.4898V23.9511Z" fill="#07012C"/>
<path d="M24.4849 19.9596H28.4799V23.9515L24.4849 23.9511L24.4849 19.9596Z" fill="#07012C"/>
<path d="M24.4849 23.9511L28.4799 23.9515V27.943H24.4849V23.9511Z" fill="#07012C"/>
<path d="M12.4998 23.9511H16.4947V27.943H12.4998V23.9511Z" fill="#07012C"/>
<path d="M8.50466 0H12.4997V3.99186H8.50466V0Z" fill="#07012C"/>
<path d="M12.4997 0H16.4948V3.99186H12.4997V0Z" fill="#07012C"/>
<path d="M4.50953 0H8.50466V3.99186H4.50953V0Z" fill="#07012C"/>
<path d="M56.7969 28V7.01867H61.9742V28H56.7969ZM59.3491 5.74934C58.3525 5.74934 57.5747 5.50045 57.0157 5.00267C56.4567 4.50489 56.1771 3.79556 56.1771 2.87467C56.1771 2.02845 56.4567 1.344 57.0157 0.821334C57.5991 0.273778 58.3769 0 59.3491 0C60.3456 0 61.1235 0.261334 61.6825 0.784001C62.2415 1.28178 62.5211 1.97867 62.5211 2.87467C62.5211 3.74578 62.2294 4.44267 61.646 4.96533C61.087 5.488 60.3213 5.74934 59.3491 5.74934Z" fill="#07012C"/>
<path d="M101.607 28V0H106.784V28H101.607Z" fill="#07012C"/>
<path d="M108.83 28V7.01867H114.007V28H108.83ZM111.382 5.74934C110.385 5.74934 109.607 5.50045 109.048 5.00267C108.489 4.50489 108.21 3.79556 108.21 2.87467C108.21 2.02845 108.489 1.344 109.048 0.821334C109.632 0.273778 110.41 0 111.382 0C112.378 0 113.156 0.261334 113.715 0.784001C114.274 1.28178 114.554 1.97867 114.554 2.87467C114.554 3.74578 114.262 4.44267 113.679 4.96533C113.12 5.488 112.354 5.74934 111.382 5.74934Z" fill="#07012C"/>
<path d="M124.859 28C122.891 28 121.128 27.5644 119.573 26.6933C118.042 25.7973 116.826 24.5778 115.927 23.0347C115.052 21.4916 114.614 19.7244 114.614 17.7333C114.614 15.7422 115.052 13.9876 115.927 12.4693C116.826 10.9262 118.042 9.70667 119.573 8.81067C121.128 7.91467 122.891 7.46667 124.859 7.46667C126.804 7.46667 128.542 7.91467 130.073 8.81067C131.629 9.70667 132.844 10.9262 133.719 12.4693C134.594 13.9876 135.032 15.7422 135.032 17.7333C135.032 19.7244 134.594 21.4916 133.719 23.0347C132.844 24.5778 131.629 25.7973 130.073 26.6933C128.542 27.5644 126.804 28 124.859 28ZM124.859 23.3707C125.807 23.3707 126.658 23.1342 127.412 22.6613C128.165 22.1636 128.748 21.4916 129.162 20.6453C129.599 19.7742 129.818 18.8036 129.818 17.7333C129.818 16.6382 129.599 15.6676 129.162 14.8213C128.748 13.9502 128.165 13.2782 127.412 12.8053C126.658 12.3076 125.807 12.0587 124.859 12.0587C123.887 12.0587 123.024 12.3076 122.271 12.8053C121.517 13.3031 120.922 13.9751 120.484 14.8213C120.047 15.6676 119.84 16.6382 119.865 17.7333C119.84 18.8036 120.047 19.7742 120.484 20.6453C120.922 21.4916 121.517 22.1636 122.271 22.6613C123.024 23.1342 123.887 23.3707 124.859 23.3707Z" fill="#07012C"/>
<path fill-rule="evenodd" clip-rule="evenodd" d="M38.3748 0V28H43.8437V16.688H54.0887V11.872H43.8437V5.04H55.62V0H43.8437V5.04H40.8905V0H38.3748Z" fill="#07012C"/>
<path d="M43.8437 0H40.8905V5.04H43.8437V0Z" fill="#07012C"/>
<path fill-rule="evenodd" clip-rule="evenodd" d="M66.8839 26.6933C68.2207 27.5644 69.7277 28 71.4049 28C72.3042 28 73.1549 27.8756 73.957 27.6267C74.7834 27.3529 75.5126 26.992 76.1446 26.544C76.6385 26.1881 77.0567 25.804 77.3992 25.3916L77.4571 28H82.3426L82.452 0H77.2748V9.97029C76.9767 9.65121 76.6364 9.35178 76.2539 9.072C75.5977 8.57422 74.8442 8.18845 73.9934 7.91467C73.167 7.616 72.3042 7.46667 71.4049 7.46667C69.7034 7.46667 68.1843 7.91467 66.8474 8.81067C65.5349 9.70667 64.4897 10.9262 63.7119 12.4693C62.9585 14.0124 62.5817 15.7671 62.5817 17.7333C62.5817 19.7493 62.9585 21.5289 63.7119 23.072C64.4897 24.5902 65.5471 25.7973 66.8839 26.6933ZM77.2748 12.88V9.97029C77.507 10.2189 77.7136 10.4795 77.8946 10.752C78.3078 11.3493 78.5387 11.984 78.5873 12.656L77.2748 12.88ZM75.1237 22.848C74.3945 23.3458 73.5438 23.5947 72.5715 23.5947C71.5993 23.5947 70.7486 23.3458 70.0194 22.848C69.3145 22.3502 68.7555 21.6658 68.3423 20.7947C67.9534 19.9236 67.7589 18.9031 67.7589 17.7333C67.7589 16.5884 67.9534 15.5804 68.3423 14.7093C68.7555 13.8133 69.3145 13.1289 70.0194 12.656C70.7486 12.1582 71.5993 11.9093 72.5715 11.9093C73.5438 11.9093 74.3945 12.1582 75.1237 12.656C75.8529 13.1289 76.4241 13.8133 76.8373 14.7093C77.2505 15.5804 77.4571 16.5884 77.4571 17.7333C77.4571 18.9031 77.2505 19.9236 76.8373 20.7947C76.4241 21.6658 75.8529 22.3502 75.1237 22.848Z" fill="#07012C"/>
<path d="M78.5873 12.656C78.5387 11.984 78.3078 11.3493 77.8946 10.752C77.7136 10.4795 77.507 10.2189 77.2748 9.97029V12.88L78.5873 12.656Z" fill="#07012C"/>
<path fill-rule="evenodd" clip-rule="evenodd" d="M87.5358 26.6933C89.0914 27.5644 90.9143 28 93.0047 28C93.8797 28 94.7669 27.888 95.6662 27.664C96.5655 27.44 97.4405 27.1164 98.2913 26.6933C99.142 26.2453 99.9198 25.6978 100.625 25.0507L98.1454 21.504C97.3433 22.176 96.5898 22.6489 95.8849 22.9227C95.1801 23.1964 94.4023 23.3333 93.5516 23.3333C92.3119 23.3333 91.2303 23.0969 90.3067 22.624C89.4074 22.1262 88.7025 21.4418 88.192 20.5707C87.9157 20.0754 87.7178 19.5279 87.5986 18.928H101.354L101.39 17.2853C101.439 15.8667 101.244 14.56 100.807 13.3653C100.369 12.1707 99.7375 11.1378 98.9111 10.2667C98.109 9.37066 97.1488 8.68622 96.0308 8.21333C94.9127 7.71556 93.6974 7.46667 92.3849 7.46667C90.9751 7.46667 89.6626 7.728 88.4473 8.25067C87.2562 8.74844 86.2232 9.47022 85.3482 10.416C84.4732 11.3369 83.7926 12.432 83.3065 13.7013C82.8204 14.9707 82.5773 16.3644 82.5773 17.8827C82.5773 19.8489 83.0148 21.5911 83.8899 23.1093C84.7649 24.6276 85.9802 25.8222 87.5358 26.6933ZM85.8587 18.928H87.5986C87.5933 18.9014 87.5882 18.8747 87.5832 18.8479C87.503 18.416 87.4629 17.9573 87.4629 17.472C87.4629 16.8207 87.5231 16.2234 87.6437 15.6801L96.5047 15.68V15.5307C96.4561 14.8587 96.2374 14.2489 95.8485 13.7013C95.4839 13.1538 95.0099 12.7307 94.4266 12.432C93.8432 12.1333 93.187 11.984 92.4578 11.984C91.3883 11.984 90.4768 12.1956 89.7233 12.6187C88.9941 13.0418 88.4351 13.664 88.0462 14.4853C87.8739 14.8493 87.7397 15.2476 87.6437 15.6801L85.0201 15.68L85.8587 18.928Z" fill="#07012C"/>
<path d="M85.0201 15.68L85.8587 18.928H87.5986C87.5933 18.9014 87.5882 18.8747 87.5832 18.8479C87.503 18.416 87.4629 17.9573 87.4629 17.472C87.4629 16.8207 87.5231 16.2234 87.6437 15.6801L85.0201 15.68Z" fill="#07012C"/>
<path d="M135.281 7.87733V28H136.411H137.906H140.458V15.7547C140.458 15.232 140.555 14.7467 140.75 14.2987C140.968 13.8507 141.248 13.4524 141.588 13.104C141.953 12.7556 142.378 12.4942 142.864 12.32C143.375 12.1209 143.922 12.0213 144.505 12.0213C145.234 11.9716 145.842 12.096 146.328 12.3947C146.838 12.6684 147.215 13.104 147.458 13.7013C147.701 14.2987 147.823 15.0453 147.823 15.9413V28H153V15.5307C153 13.7636 152.745 12.2827 152.234 11.088C151.748 9.86844 151.007 8.96 150.01 8.36267C149.038 7.76533 147.823 7.46667 146.364 7.46667C145.295 7.46667 144.274 7.69067 143.302 8.13867C142.33 8.58667 141.491 9.184 140.786 9.93067C140.623 10.1035 140.472 10.2813 140.333 10.4641L140.385 11.9093L139.364 12.3573C139.565 11.6853 139.882 11.0623 140.314 10.4883C140.321 10.4802 140.327 10.4722 140.333 10.4641L140.239 7.87733H135.281Z" fill="#07012C"/>
<path d="M139.364 12.3573L140.385 11.9093L140.333 10.4641C140.327 10.4722 140.321 10.4802 140.314 10.4883C139.882 11.0623 139.565 11.6853 139.364 12.3573Z" fill="#07012C"/>
</svg>
