<svg width="36" height="36" viewBox="0 0 36 36" fill="none" xmlns="http://www.w3.org/2000/svg">
<path opacity="0.2" d="M6.1875 18H29.8125V28.6875C29.8125 28.9859 29.694 29.272 29.483 29.483C29.272 29.694 28.9859 29.8125 28.6875 29.8125H7.3125C7.01413 29.8125 6.72798 29.694 6.51701 29.483C6.30603 29.272 6.1875 28.9859 6.1875 28.6875V18Z" fill="#F65A3B"/>
<path d="M28.6875 6.1875H7.3125C6.69118 6.1875 6.1875 6.69118 6.1875 7.3125V28.6875C6.1875 29.3088 6.69118 29.8125 7.3125 29.8125H28.6875C29.3088 29.8125 29.8125 29.3088 29.8125 28.6875V7.3125C29.8125 6.69118 29.3088 6.1875 28.6875 6.1875Z" stroke="#F65A3B" stroke-width="2" stroke-linecap="round" stroke-linejoin="round"/>
<path d="M6.1875 18H29.8125" stroke="#F65A3B" stroke-width="2" stroke-linecap="round" stroke-linejoin="round"/>
</svg>
