<svg width="30" height="30" viewBox="0 0 30 30" fill="none" xmlns="http://www.w3.org/2000/svg">
<path d="M19.3173 19.9923L16.0548 28.9641C15.9748 29.1794 15.8309 29.3651 15.6424 29.4962C15.4539 29.6274 15.2297 29.6976 15.0001 29.6976C14.7704 29.6976 14.5463 29.6274 14.3577 29.4962C14.1692 29.3651 14.0253 29.1794 13.9454 28.9641L10.6829 19.9923C10.6259 19.8376 10.536 19.6972 10.4195 19.5806C10.303 19.4641 10.1625 19.3742 10.0079 19.3173L1.03601 16.0548C0.820708 15.9748 0.635023 15.8309 0.503898 15.6424C0.372774 15.4539 0.30249 15.2297 0.30249 15.0001C0.30249 14.7704 0.372774 14.5463 0.503898 14.3577C0.635023 14.1692 0.820708 14.0253 1.03601 13.9454L10.0079 10.6829C10.1625 10.6259 10.303 10.536 10.4195 10.4195C10.536 10.303 10.6259 10.1625 10.6829 10.0079L13.9454 1.03601C14.0253 0.820708 14.1692 0.635023 14.3577 0.503898C14.5463 0.372774 14.7704 0.30249 15.0001 0.30249C15.2297 0.30249 15.4539 0.372774 15.6424 0.503898C15.8309 0.635023 15.9748 0.820708 16.0548 1.03601L19.3173 10.0079C19.3742 10.1625 19.4641 10.303 19.5806 10.4195C19.6972 10.536 19.8376 10.6259 19.9923 10.6829L28.9641 13.9454C29.1794 14.0253 29.3651 14.1692 29.4962 14.3577C29.6274 14.5463 29.6976 14.7704 29.6976 15.0001C29.6976 15.2297 29.6274 15.4539 29.4962 15.6424C29.3651 15.8309 29.1794 15.9748 28.9641 16.0548L19.9923 19.3173C19.8376 19.3742 19.6972 19.4641 19.5806 19.5806C19.4641 19.6972 19.3742 19.8376 19.3173 19.9923Z" fill="#EA1A4C"/>
</svg>
