<svg width="24" height="25" viewBox="0 0 24 25" fill="none" xmlns="http://www.w3.org/2000/svg">
<g clip-path="url(#clip0_1772_1959)">
<path d="M17.0725 0.631836H13.0278V16.9796C13.0278 18.9275 11.4722 20.5275 9.53626 20.5275C7.60034 20.5275 6.04469 18.9275 6.04469 16.9796C6.04469 15.0666 7.56577 13.5014 9.43257 13.4318V9.3275C5.31872 9.39704 2 12.771 2 16.9796C2 21.2232 5.38786 24.6318 9.57085 24.6318C13.7538 24.6318 17.1416 21.1884 17.1416 16.9796V8.59704C18.6627 9.7101 20.5295 10.371 22.5 10.4058V6.3014C19.4579 6.19706 17.0725 3.6927 17.0725 0.631836Z" fill="#676767"/>
</g>
<defs>
<clipPath id="clip0_1772_1959">
<rect width="24" height="24" fill="white" transform="translate(0 0.631836)"/>
</clipPath>
</defs>
</svg>
