<svg width="22" height="23" viewBox="0 0 22 23" fill="none" xmlns="http://www.w3.org/2000/svg">
<path d="M0 22.1318L1.54642 16.4824C0.592167 14.8288 0.09075 12.9542 0.0916667 11.0319C0.0944167 5.02225 4.98483 0.131836 10.9936 0.131836C13.9095 0.132753 16.6467 1.2685 18.7055 3.32917C20.7634 5.38984 21.8964 8.12884 21.8955 11.042C21.8927 17.0526 17.0023 21.943 10.9936 21.943C9.16942 21.9421 7.37183 21.4847 5.77958 20.6157L0 22.1318ZM6.04725 18.6421C7.58358 19.5542 9.05025 20.1005 10.9899 20.1014C15.9839 20.1014 20.0521 16.0369 20.0548 11.0402C20.0567 6.03334 16.0077 1.97434 10.9972 1.9725C5.99958 1.9725 1.93417 6.037 1.93233 11.0328C1.93142 13.0724 2.52908 14.5996 3.53283 16.1973L2.61708 19.5413L6.04725 18.6421ZM16.4853 13.6334C16.4175 13.5198 16.236 13.4519 15.9628 13.3153C15.6906 13.1788 14.3513 12.5197 14.1011 12.4289C13.8517 12.3382 13.6702 12.2923 13.4878 12.5655C13.3063 12.8378 12.7838 13.4519 12.6252 13.6334C12.4667 13.8149 12.3072 13.8378 12.0349 13.7013C11.7627 13.5647 10.8845 13.2778 9.84408 12.3492C9.03467 11.6268 8.48742 10.7349 8.32883 10.4618C8.17025 10.1895 8.31233 10.0419 8.448 9.90625C8.57083 9.78434 8.72025 9.58817 8.85683 9.42867C8.99525 9.271 9.04017 9.15734 9.13183 8.97492C9.22258 8.79342 9.17767 8.63392 9.10892 8.49734C9.04017 8.36167 8.49567 7.02059 8.26925 6.47517C8.04742 5.94442 7.82283 6.01592 7.656 6.00767L7.1335 5.9985C6.952 5.9985 6.65683 6.06634 6.4075 6.3395C6.15817 6.61267 5.45417 7.27084 5.45417 8.61192C5.45417 9.953 6.43042 11.2483 6.56608 11.4298C6.70267 11.6113 8.4865 14.3631 11.2191 15.5428C11.869 15.8233 12.3768 15.9911 12.7719 16.1167C13.4246 16.3238 14.0186 16.2945 14.4879 16.2248C15.0113 16.1469 16.0994 15.5658 16.3267 14.9296C16.5541 14.2925 16.5541 13.7471 16.4853 13.6334Z" fill="#676767"/>
</svg>
