<svg width="137" height="47" viewBox="0 0 137 47" fill="none" xmlns="http://www.w3.org/2000/svg">
<rect x="0.76123" width="135.918" height="47" rx="5" fill="black"/>
<path d="M27.5621 24.0157C27.5736 23.127 27.8103 22.2555 28.2503 21.4825C28.6903 20.7095 29.3192 20.06 30.0785 19.5945C29.5961 18.9075 28.9597 18.3421 28.2199 17.9433C27.4801 17.5445 26.6572 17.3232 25.8166 17.2969C24.0235 17.1092 22.2852 18.3669 21.3714 18.3669C20.44 18.3669 19.0331 17.3156 17.5182 17.3466C16.5382 17.3782 15.5832 17.6624 14.7462 18.1714C13.9092 18.6805 13.2186 19.3971 12.7419 20.2514C10.6768 23.8169 12.2172 29.057 14.1954 31.9391C15.1852 33.3503 16.3419 34.9268 17.8555 34.8709C19.3366 34.8096 19.8898 33.929 21.6776 33.929C23.4489 33.929 23.9679 34.8709 25.5122 34.8353C27.1015 34.8096 28.1029 33.4178 29.0579 31.9931C29.7691 30.9875 30.3163 29.8762 30.6793 28.7001C29.756 28.3107 28.968 27.6588 28.4137 26.8258C27.8593 25.9928 27.5632 25.0155 27.5621 24.0157Z" fill="white"/>
<path d="M24.6449 15.8449C25.5115 14.8075 25.9384 13.4741 25.8351 12.1279C24.5112 12.2666 23.2882 12.8976 22.41 13.8951C21.9805 14.3825 21.6516 14.9494 21.4421 15.5636C21.2325 16.1778 21.1464 16.8271 21.1887 17.4744C21.8509 17.4812 22.506 17.3381 23.1047 17.0558C23.7033 16.7736 24.23 16.3595 24.6449 15.8449Z" fill="white"/>
<path d="M44.7492 13.23H47.2192V16.73C46.8325 16.8567 46.4425 16.95 46.0492 17.01C45.6559 17.07 45.2092 17.1 44.7092 17.1C43.9692 17.1 43.3459 16.9533 42.8392 16.66C42.3325 16.36 41.9459 15.9367 41.6792 15.39C41.4192 14.8367 41.2892 14.1833 41.2892 13.43C41.2892 12.6833 41.4359 12.0367 41.7292 11.49C42.0225 10.9433 42.4425 10.52 42.9892 10.22C43.5425 9.91333 44.2092 9.76 44.9892 9.76C45.3892 9.76 45.7659 9.79667 46.1192 9.87C46.4792 9.94333 46.8125 10.0467 47.1192 10.18L46.7792 10.96C46.5259 10.8467 46.2392 10.75 45.9192 10.67C45.6059 10.59 45.2792 10.55 44.9392 10.55C44.3725 10.55 43.8859 10.6667 43.4792 10.9C43.0725 11.1333 42.7625 11.4667 42.5492 11.9C42.3359 12.3267 42.2292 12.8367 42.2292 13.43C42.2292 13.9967 42.3192 14.5 42.4992 14.94C42.6859 15.3733 42.9759 15.7133 43.3692 15.96C43.7625 16.2 44.2792 16.32 44.9192 16.32C45.1325 16.32 45.3192 16.3133 45.4792 16.3C45.6459 16.28 45.7959 16.2567 45.9292 16.23C46.0692 16.2033 46.1992 16.1767 46.3192 16.15V14.03H44.7492V13.23ZM52.9146 17H48.9246V9.86H52.9146V10.65H49.8246V12.88H52.7346V13.66H49.8246V16.21H52.9146V17ZM56.7412 17H55.8412V10.65H53.6112V9.86H58.9612V10.65H56.7412V17ZM65.1729 17H62.5929V16.48L63.4329 16.29V10.58L62.5929 10.38V9.86H65.1729V10.38L64.3329 10.58V16.29L65.1729 16.48V17ZM68.8115 17H67.9115V10.65H65.6815V9.86H71.0315V10.65H68.8115V17ZM81.4632 13.42C81.4632 13.9733 81.3932 14.4767 81.2532 14.93C81.1132 15.3767 80.9032 15.7633 80.6232 16.09C80.3499 16.4167 80.0065 16.6667 79.5932 16.84C79.1865 17.0133 78.7132 17.1 78.1732 17.1C77.6132 17.1 77.1265 17.0133 76.7132 16.84C76.2999 16.66 75.9565 16.41 75.6832 16.09C75.4099 15.7633 75.2065 15.3733 75.0732 14.92C74.9399 14.4667 74.8732 13.9633 74.8732 13.41C74.8732 12.6767 74.9932 12.0367 75.2332 11.49C75.4732 10.9433 75.8365 10.5167 76.3232 10.21C76.8165 9.90333 77.4365 9.75 78.1832 9.75C78.8965 9.75 79.4965 9.90333 79.9832 10.21C80.4699 10.51 80.8365 10.9367 81.0832 11.49C81.3365 12.0367 81.4632 12.68 81.4632 13.42ZM75.8232 13.42C75.8232 14.02 75.9065 14.5367 76.0732 14.97C76.2399 15.4033 76.4965 15.7367 76.8432 15.97C77.1965 16.2033 77.6399 16.32 78.1732 16.32C78.7132 16.32 79.1532 16.2033 79.4932 15.97C79.8399 15.7367 80.0965 15.4033 80.2632 14.97C80.4299 14.5367 80.5132 14.02 80.5132 13.42C80.5132 12.52 80.3265 11.8167 79.9532 11.31C79.5799 10.7967 78.9899 10.54 78.1832 10.54C77.6432 10.54 77.1965 10.6567 76.8432 10.89C76.4965 11.1167 76.2399 11.4467 76.0732 11.88C75.9065 12.3067 75.8232 12.82 75.8232 13.42ZM88.7057 17H87.6557L83.8357 11.07H83.7957C83.8024 11.19 83.809 11.3233 83.8157 11.47C83.829 11.6167 83.839 11.7767 83.8457 11.95C83.8524 12.1167 83.859 12.29 83.8657 12.47C83.8724 12.65 83.8757 12.83 83.8757 13.01V17H83.0457V9.86H84.0857L87.8957 15.77H87.9357C87.929 15.69 87.9224 15.58 87.9157 15.44C87.909 15.2933 87.9024 15.1333 87.8957 14.96C87.889 14.78 87.8824 14.5967 87.8757 14.41C87.869 14.2233 87.8657 14.05 87.8657 13.89V9.86H88.7057V17Z" fill="white"/>
<path d="M49.5971 33.6807H44.2368L42.9496 37.5486H40.6792L45.7563 23.2386H48.1152L53.1923 37.5486H50.8832L49.5971 33.6807ZM44.792 31.8959H49.0409L46.9463 25.6187H46.8876L44.792 31.8959Z" fill="white"/>
<path d="M64.1572 32.3326C64.1572 35.5747 62.4519 37.6577 59.8785 37.6577C59.2267 37.6924 58.5784 37.5396 58.0078 37.2168C57.4373 36.894 56.9677 36.4142 56.6527 35.8324H56.604V41H54.4995V27.1155H56.5365V28.8508H56.5752C56.9047 28.2717 57.3823 27.7944 57.9572 27.4696C58.532 27.1449 59.1826 26.9847 59.8398 27.0063C62.442 27.0063 64.1572 29.0995 64.1572 32.3326ZM61.9941 32.3326C61.9941 30.2203 60.9214 28.8316 59.2847 28.8316C57.6767 28.8316 56.5952 30.2496 56.5952 32.3326C56.5952 34.4347 57.6767 35.8425 59.2847 35.8425C60.9214 35.8425 61.9941 34.464 61.9941 32.3326Z" fill="white"/>
<path d="M75.4422 32.3326C75.4422 35.5747 73.7363 37.6577 71.1629 37.6577C70.511 37.6924 69.8627 37.5396 69.2922 37.2168C68.7217 36.894 68.2521 36.4142 67.9371 35.8324H67.8884V41H65.7839V27.1155H67.8209V28.8508H67.8596C68.1891 28.2717 68.6667 27.7944 69.2415 27.4696C69.8164 27.1449 70.467 26.9847 71.1242 27.0063C73.7264 27.0063 75.4422 29.0995 75.4422 32.3326ZM73.2785 32.3326C73.2785 30.2203 72.2058 28.8316 70.5691 28.8316C68.9611 28.8316 67.8796 30.2496 67.8796 32.3326C67.8796 34.4347 68.9611 35.8425 70.5691 35.8425C72.2058 35.8425 73.2785 34.464 73.2785 32.3326Z" fill="white"/>
<path d="M82.8991 33.5615C83.055 34.9805 84.4098 35.9123 86.261 35.9123C88.0348 35.9123 89.311 34.9805 89.311 33.7009C89.311 32.5902 88.5413 31.9252 86.7188 31.4694L84.8963 31.0226C82.3141 30.3879 81.1153 29.159 81.1153 27.1649C81.1153 24.6959 83.2298 23 86.2312 23C89.2038 23 91.2408 24.6959 91.3094 27.1649H89.1849C89.0578 25.7368 87.8977 24.8748 86.2024 24.8748C84.5071 24.8748 83.347 25.747 83.347 27.0164C83.347 28.0281 84.0879 28.6234 85.9005 29.0791L87.4498 29.4662C90.3351 30.1606 91.5327 31.34 91.5327 33.4331C91.5327 36.1103 89.4382 37.787 86.105 37.787C82.9864 37.787 80.8808 36.1497 80.7448 33.5613L82.8991 33.5615Z" fill="white"/>
<path d="M96.0767 24.6465V27.1155H98.0264V28.8114H96.0767V34.563C96.0767 35.4565 96.4671 35.8729 97.3242 35.8729C97.5556 35.8688 97.7867 35.8523 98.0164 35.8234V37.5091C97.6311 37.5824 97.2395 37.6156 96.8475 37.6082C94.7718 37.6082 93.9623 36.8148 93.9623 34.7914V28.8114H92.4715V27.1155H93.9622V24.6465H96.0767Z" fill="white"/>
<path d="M99.1545 32.3326C99.1545 29.0499 101.054 26.9872 104.017 26.9872C106.99 26.9872 108.881 29.0499 108.881 32.3326C108.881 35.6242 107 37.678 104.017 37.678C101.036 37.678 99.1545 35.6242 99.1545 32.3326ZM106.736 32.3326C106.736 30.0808 105.722 28.7517 104.017 28.7517C102.312 28.7517 101.298 30.0909 101.298 32.3326C101.298 34.5934 102.312 35.9123 104.017 35.9123C105.722 35.9123 106.736 34.5934 106.736 32.3326Z" fill="white"/>
<path d="M110.616 27.1155H112.623V28.8912H112.672C112.807 28.3366 113.127 27.8465 113.576 27.5032C114.025 27.16 114.577 26.9845 115.138 27.0063C115.38 27.0054 115.622 27.0322 115.859 27.0862V29.0893C115.553 28.9941 115.233 28.9504 114.913 28.9599C114.608 28.9473 114.303 29.0021 114.02 29.1207C113.737 29.2393 113.483 29.4187 113.274 29.6468C113.066 29.8748 112.908 30.146 112.813 30.4418C112.717 30.7376 112.686 31.0509 112.72 31.3603V37.5486H110.616L110.616 27.1155Z" fill="white"/>
<path d="M125.562 34.4842C125.279 36.3782 123.466 37.678 121.147 37.678C118.165 37.678 116.313 35.6445 116.313 32.3821C116.313 29.1096 118.175 26.9872 121.059 26.9872C123.895 26.9872 125.679 28.97 125.679 32.1334V32.8671H118.438V32.9965C118.404 33.3805 118.452 33.7673 118.576 34.1313C118.701 34.4952 118.901 34.828 119.162 35.1075C119.422 35.387 119.739 35.6068 120.089 35.7524C120.44 35.8979 120.817 35.9659 121.196 35.9517C121.693 35.9991 122.192 35.8819 122.619 35.6175C123.046 35.3531 123.377 34.9556 123.564 34.4842L125.562 34.4842ZM118.448 31.3704H123.574C123.592 31.0252 123.541 30.6797 123.423 30.3556C123.304 30.0316 123.121 29.7359 122.885 29.4873C122.649 29.2387 122.365 29.0424 122.05 28.9108C121.736 28.7791 121.399 28.715 121.059 28.7225C120.716 28.7204 120.376 28.7874 120.059 28.9196C119.742 29.0518 119.454 29.2466 119.211 29.4928C118.968 29.739 118.776 30.0317 118.645 30.3539C118.514 30.6762 118.447 31.0217 118.448 31.3704Z" fill="white"/>
</svg>
